<svg xmlns="http://www.w3.org/2000/svg" width="116" height="116" viewBox="0 0 116 116">
  <g>
    <g>
      <path d="M55.589,70.215a1.181,1.181,0,1,0-.639,1.543,1.143,1.143,0,0,0,.2-.109A1.2,1.2,0,0,0,55.589,70.215Z" fill="#fff"/>
      <path d="M84.527,29.413a5.017,5.017,0,0,0-7.081,0s-7.764,7.756-7.895,7.881h0c-3.821,3.688-7.7,7.108-13.079,8.455a6.1,6.1,0,0,0-2.826,1.6L28.187,72.78A9.136,9.136,0,0,0,41.11,85.7L51.571,75.259A1.181,1.181,0,0,0,49.9,73.586L43.264,80.2l-9.585-9.57L55.31,49.025a3.727,3.727,0,0,1,1.729-.979C62.58,46.659,66.551,43.4,70.352,39.8l3.782,3.778c-3.613,3.8-6.873,7.767-8.259,13.3A3.718,3.718,0,0,1,64.9,58.6l-7.441,7.437a1.182,1.182,0,0,0,1.671,1.671l7.442-7.442a6.084,6.084,0,0,0,1.6-2.823c1.347-5.37,4.776-9.245,8.471-13.066h0c.125-.129,7.884-7.885,7.884-7.885a5,5,0,0,0,.006-7.071l-.006-.006ZM39.443,84.024a6.773,6.773,0,0,1-9.594-9.564l.008-.008L32.01,72.3l9.584,9.574ZM82.857,34.818l-7.07,7.065-3.74-3.736,7.069-7.064a2.644,2.644,0,0,1,3.746,3.731l0,0Z" fill="#fff"/>
      <path d="M50.65,68.3a1.178,1.178,0,0,0,.835-.346L62.461,56.989a1.18,1.18,0,0,0,0-1.67l0,0L58.6,51.455a1.181,1.181,0,0,0-1.67,0L45.949,62.419a1.18,1.18,0,0,0,0,1.67l0,0,3.866,3.862a1.178,1.178,0,0,0,.835.346Zm7.11-14.338,2.2,2.192-9.3,9.295-2.2-2.193Z" fill="#fff"/>
      <path d="M40.44,67.922a3.843,3.843,0,0,0,0,5.435l0,0,.1.1h0a3.846,3.846,0,1,0,5.44-5.439l-.1-.1A3.854,3.854,0,0,0,40.44,67.922Zm3.866,3.862a1.488,1.488,0,0,1-2.1,0l-.1-.1a1.48,1.48,0,0,1-.007-2.093l.007-.007a1.488,1.488,0,0,1,2.1,0l.1.1a1.48,1.48,0,0,1,.007,2.093Z" fill="#fff"/>
    </g>
    <g>
      <circle cx="58" cy="58" r="58" fill="none"/>
      <circle cx="58" cy="58" r="56.5" fill="none" stroke="#fff" stroke-width="3"/>
    </g>
  </g>
</svg>
