<svg xmlns="http://www.w3.org/2000/svg" width="47.48" height="37.48" viewBox="0 0 47.48 37.48">
  <path d="M45.89,5.067H42.56V1.707A1.579,1.579,0,0,0,41.2.167a24.877,24.877,0,0,0-7,.18c-.09.01-.18.02-.28.04C28.66,1.2,23.56,5.01,23.56,5.01a16.547,16.547,0,0,0-10-4.623A25.1,25.1,0,0,0,6.27.167a1.57,1.57,0,0,0-1.35,1.54v3.36H1.59A1.575,1.575,0,0,0,0,6.627v29.3a1.521,1.521,0,0,0,.67,1.26,1.576,1.576,0,0,0,1.44.2c.12-.04,12.06-4.01,20.97-.05a1.6,1.6,0,0,0,1.32,0c8.88-3.95,20.85.01,20.96.05a1.592,1.592,0,0,0,1.45-.2,1.521,1.521,0,0,0,.67-1.26V6.627A1.575,1.575,0,0,0,45.89,5.067ZM3.18,33.847V8.177H4.92v20.71a1.556,1.556,0,0,0,.55,1.18,1.664,1.664,0,0,0,1.27.36c.09-.01,7.01-.94,12.07,2.44A39.805,39.805,0,0,0,3.18,33.847Zm18.96-2.38a17.252,17.252,0,0,0-8.58-3.9,25.444,25.444,0,0,0-4.44-.39c-.37,0-.71.01-1.02.02V3.137c.29-.01.62-.02.99-.02,3.46,0,9.87.76,13.05,6.04Zm3.19-22.31c3.52-5.81,10.98-6.15,14.04-6.02V27.2a25.547,25.547,0,0,0-5.45.37,17.324,17.324,0,0,0-8.59,3.9Zm18.96,24.69a39.805,39.805,0,0,0-15.63-.98c5.06-3.38,11.98-2.45,12.07-2.44a1.687,1.687,0,0,0,1.28-.36,1.574,1.574,0,0,0,.55-1.18V8.177h1.73Z" fill="#fff"/>
</svg>
