<svg xmlns="http://www.w3.org/2000/svg" width="100" height="100" viewBox="0 0 100 100">
  <g>
    <circle cx="50" cy="50" r="50" fill="#fff"/>
    <path d="M19.581,68.731h8.462v5.132a1.7,1.7,0,0,0,1.689,1.711H73.965a1.7,1.7,0,0,0,1.692-1.708V29.386a1.7,1.7,0,0,0-1.69-1.71H65.5V25.965a1.693,1.693,0,0,0-3.385-.082c0,.027,0,.055,0,.082v1.711H53.542V25.965a1.693,1.693,0,0,0-3.385,0h0v1.711H41.7V25.965a1.693,1.693,0,0,0-3.385-.082v1.793H29.736a1.7,1.7,0,0,0-1.693,1.707V39.65c0,12.608-5.184,22.306-9.545,26.057a1.723,1.723,0,0,0-.509,1.9,1.7,1.7,0,0,0,1.592,1.128Zm52.691,3.421H31.428V68.731H63.81a1.678,1.678,0,0,0,1.083-.4c2.035-1.713,5.186-5.791,7.379-11.014ZM31.428,31.1H38.31v1.711a1.693,1.693,0,0,0,3.385.082c0-.027,0-.055,0-.082V31.1h8.462v1.711a1.693,1.693,0,0,0,3.385,0V31.1h8.576v1.711a1.693,1.693,0,0,0,3.385.082c0-.027,0-.055,0-.082V31.1h6.769V37.94H31.428ZM31.4,41.36H72.242c-.381,10.851-4.5,19.39-9.1,23.951H23.427c5.2-6.7,7.688-15.433,7.969-23.951Z" fill="#46b590"/>
  </g>
</svg>
