<svg xmlns="http://www.w3.org/2000/svg" width="100" height="100" viewBox="0 0 100 100">
  <g>
    <path d="M50,0A50,50,0,1,1,0,50,50,50,0,0,1,50,0Z" fill="#fff"/>
    <path d="M74.223,34.645H70.565v-3.7a1.723,1.723,0,0,0-1.491-1.689,27.578,27.578,0,0,0-8,.235,13.293,13.293,0,0,1-22.372,0,27.578,27.578,0,0,0-8.005-.235A1.723,1.723,0,0,0,29.2,30.945v3.7H25.543a1.729,1.729,0,0,0-1.75,1.708h0v32.2a1.7,1.7,0,0,0,.737,1.392,1.78,1.78,0,0,0,1.59.221c.132-.044,13.254-4.414,23.038-.059a1.785,1.785,0,0,0,1.453,0c9.758-4.342,22.908.015,23.039.059a1.78,1.78,0,0,0,1.59-.221,1.7,1.7,0,0,0,.737-1.392v-32.2a1.731,1.731,0,0,0-1.752-1.708ZM27.294,66.264v-28.2H29.2V60.818a1.687,1.687,0,0,0,.608,1.293,1.781,1.781,0,0,0,1.4.4c.1-.013,7.7-1.032,13.262,2.688a43.633,43.633,0,0,0-17.178,1.065Zm20.838-2.61A19.062,19.062,0,0,0,38.7,59.362a28.123,28.123,0,0,0-4.881-.42c-.4,0-.776.009-1.113.022V32.519h0c3.365-.149,11.552.2,15.428,6.614Zm3.5-24.519C55.5,32.75,63.694,32.382,67.06,32.524V58.965a28.385,28.385,0,0,0-5.994.4,19.058,19.058,0,0,0-9.434,4.292V39.135ZM55.287,65.2c5.559-3.724,13.17-2.7,13.265-2.69a1.786,1.786,0,0,0,1.4-.4,1.7,1.7,0,0,0,.607-1.3V38.057h1.907v28.2A43.666,43.666,0,0,0,55.289,65.2Z" fill="#849def"/>
  </g>
</svg>
