<svg xmlns="http://www.w3.org/2000/svg" xmlns:xlink="http://www.w3.org/1999/xlink" width="394.146" height="303.492" viewBox="0 0 394.146 303.492">
  <defs>
    <clipPath id="a" transform="translate(89.045 -1.826)">
      <path d="M166.739,198.088H69.533V100.351c33.047-7.875,65.514-8.669,97.206,0Z" fill="none"/>
    </clipPath>
  </defs>
  <g>
    <g clip-path="url(#a)">
      <g>
        <line x1="224.236" y1="24.841" x2="0.479" y2="183.031" fill="none" stroke="#fff" stroke-miterlimit="10" stroke-width="1.66"/>
        <line x1="232.304" y1="30.545" x2="8.547" y2="188.735" fill="none" stroke="#fff" stroke-miterlimit="10" stroke-width="1.66"/>
        <line x1="240.372" y1="36.249" x2="16.615" y2="194.439" fill="none" stroke="#fff" stroke-miterlimit="10" stroke-width="1.66"/>
        <line x1="248.44" y1="41.953" x2="24.683" y2="200.143" fill="none" stroke="#fff" stroke-miterlimit="10" stroke-width="1.66"/>
        <line x1="256.509" y1="47.657" x2="32.752" y2="205.847" fill="none" stroke="#fff" stroke-miterlimit="10" stroke-width="1.66"/>
        <line x1="264.577" y1="53.361" x2="40.82" y2="211.551" fill="none" stroke="#fff" stroke-miterlimit="10" stroke-width="1.66"/>
        <line x1="272.645" y1="59.065" x2="48.888" y2="217.255" fill="none" stroke="#fff" stroke-miterlimit="10" stroke-width="1.66"/>
        <line x1="280.713" y1="64.769" x2="56.956" y2="222.959" fill="none" stroke="#fff" stroke-miterlimit="10" stroke-width="1.66"/>
        <line x1="288.781" y1="70.472" x2="65.024" y2="228.662" fill="none" stroke="#fff" stroke-miterlimit="10" stroke-width="1.66"/>
        <line x1="296.849" y1="76.176" x2="73.092" y2="234.366" fill="none" stroke="#fff" stroke-miterlimit="10" stroke-width="1.66"/>
        <line x1="304.917" y1="81.88" x2="81.16" y2="240.07" fill="none" stroke="#fff" stroke-miterlimit="10" stroke-width="1.66"/>
        <line x1="312.985" y1="87.584" x2="89.228" y2="245.774" fill="none" stroke="#fff" stroke-miterlimit="10" stroke-width="1.66"/>
        <line x1="321.054" y1="93.288" x2="97.297" y2="251.478" fill="none" stroke="#fff" stroke-miterlimit="10" stroke-width="1.66"/>
        <line x1="329.122" y1="98.992" x2="105.365" y2="257.182" fill="none" stroke="#fff" stroke-miterlimit="10" stroke-width="1.66"/>
        <line x1="337.19" y1="104.696" x2="113.433" y2="262.886" fill="none" stroke="#fff" stroke-miterlimit="10" stroke-width="1.66"/>
        <line x1="345.258" y1="110.4" x2="121.501" y2="268.59" fill="none" stroke="#fff" stroke-miterlimit="10" stroke-width="1.66"/>
        <line x1="353.326" y1="116.104" x2="129.569" y2="274.294" fill="none" stroke="#fff" stroke-miterlimit="10" stroke-width="1.66"/>
        <line x1="361.394" y1="121.808" x2="137.637" y2="279.998" fill="none" stroke="#fff" stroke-miterlimit="10" stroke-width="1.66"/>
        <line x1="369.462" y1="127.512" x2="145.705" y2="285.702" fill="none" stroke="#fff" stroke-miterlimit="10" stroke-width="1.66"/>
        <line x1="377.531" y1="133.216" x2="153.774" y2="291.406" fill="none" stroke="#fff" stroke-miterlimit="10" stroke-width="1.66"/>
        <line x1="385.599" y1="138.92" x2="161.842" y2="297.11" fill="none" stroke="#fff" stroke-miterlimit="10" stroke-width="1.66"/>
        <line x1="393.667" y1="144.624" x2="169.91" y2="302.814" fill="none" stroke="#fff" stroke-miterlimit="10" stroke-width="1.66"/>
      </g>
    </g>
    <path d="M226.753,128.546C202.9,114.1,168.835,94.126,118.135,94.126c-41.947,0-79.551,13.922-105.015,35.93" transform="translate(89.045 -1.826)" fill="none" stroke="#bbffe8" stroke-miterlimit="10" stroke-width="3.655"/>
    <path d="M240.6,198.089H13.121V49.6" transform="translate(89.045 -1.826)" fill="none" stroke="#fff" stroke-miterlimit="10" stroke-width="2.76"/>
    <path d="M20.329,60.294,13.144,49.6,5.919,60.353" transform="translate(89.045 -1.826)" fill="none" stroke="#fff" stroke-miterlimit="10" stroke-width="3"/>
    <path d="M230.908,205.293l10.69-7.185-10.749-7.225" transform="translate(89.045 -1.826)" fill="none" stroke="#fff" stroke-miterlimit="10" stroke-width="3"/>
    <g style="isolation: isolate">
      <g style="isolation: isolate">
        <path d="M217.857,165.347h-3.944v10.795h-1.641V165.347H208.32v-1.386h9.537Z" transform="translate(89.045 -1.826)" fill="#fff"/>
        <path d="M221.172,164.829a.954.954,0,0,1-.089.412,1.191,1.191,0,0,1-.238.34,1.11,1.11,0,0,1-.348.234,1.063,1.063,0,0,1-.421.085.993.993,0,0,1-.412-.085,1.069,1.069,0,0,1-.336-.234,1.147,1.147,0,0,1-.23-.34,1.013,1.013,0,0,1-.085-.412,1.077,1.077,0,0,1,.085-.421,1.139,1.139,0,0,1,.23-.349,1.05,1.05,0,0,1,.336-.233.993.993,0,0,1,.412-.085,1.063,1.063,0,0,1,.421.085,1.091,1.091,0,0,1,.348.233,1.18,1.18,0,0,1,.238.349A1.014,1.014,0,0,1,221.172,164.829Zm-.323,2.7v8.61h-1.513v-8.61Z" transform="translate(89.045 -1.826)" fill="#fff"/>
        <path d="M223.331,176.142v-8.61h.909a.373.373,0,0,1,.4.314l.11.884a4.38,4.38,0,0,1,1.071-.96,2.528,2.528,0,0,1,1.377-.374,2.027,2.027,0,0,1,1.407.484,2.725,2.725,0,0,1,.778,1.309,2.813,2.813,0,0,1,.48-.808,2.757,2.757,0,0,1,1.437-.883,3.419,3.419,0,0,1,.837-.1,3.174,3.174,0,0,1,1.211.217,2.393,2.393,0,0,1,.9.633,2.8,2.8,0,0,1,.565,1.024,4.513,4.513,0,0,1,.2,1.39v5.482h-1.522V170.66a2.321,2.321,0,0,0-.442-1.535,1.577,1.577,0,0,0-1.275-.522,1.936,1.936,0,0,0-.709.131,1.713,1.713,0,0,0-.591.387,1.82,1.82,0,0,0-.4.642,2.5,2.5,0,0,0-.149.9v5.482H228.4V170.66a2.409,2.409,0,0,0-.417-1.547,1.477,1.477,0,0,0-1.215-.51,1.9,1.9,0,0,0-1.037.3,3.442,3.442,0,0,0-.875.819v6.418Z" transform="translate(89.045 -1.826)" fill="#fff"/>
        <path d="M244.3,174.935a2.874,2.874,0,0,1-.671.591,4.173,4.173,0,0,1-.837.412,5.4,5.4,0,0,1-.923.242,5.613,5.613,0,0,1-.943.081,4.365,4.365,0,0,1-1.645-.3,3.622,3.622,0,0,1-1.3-.883,4.069,4.069,0,0,1-.854-1.442,5.853,5.853,0,0,1-.306-1.971,4.994,4.994,0,0,1,.277-1.683,3.947,3.947,0,0,1,.794-1.356,3.665,3.665,0,0,1,1.267-.9,4.139,4.139,0,0,1,1.683-.327,3.874,3.874,0,0,1,1.432.259,3.239,3.239,0,0,1,1.139.748,3.424,3.424,0,0,1,.752,1.207,4.578,4.578,0,0,1,.272,1.636.987.987,0,0,1-.076.476.319.319,0,0,1-.289.119h-5.755a5,5,0,0,0,.226,1.419,2.844,2.844,0,0,0,.556,1.008,2.265,2.265,0,0,0,.85.6,2.943,2.943,0,0,0,1.1.2,3.237,3.237,0,0,0,.982-.132,4.825,4.825,0,0,0,.71-.284,5.627,5.627,0,0,0,.5-.285.658.658,0,0,1,.344-.132.335.335,0,0,1,.289.144Zm-1.224-4.037a3.015,3.015,0,0,0-.148-.965,2.184,2.184,0,0,0-.434-.757,1.928,1.928,0,0,0-.693-.493,2.622,2.622,0,0,0-2.648.459,2.972,2.972,0,0,0-.786,1.756Z" transform="translate(89.045 -1.826)" fill="#fff"/>
      </g>
    </g>
    <g style="isolation: isolate">
      <g style="isolation: isolate">
        <path d="M75.878,61.422a.592.592,0,0,1-.12.127.269.269,0,0,1-.165.045.443.443,0,0,1-.248-.094c-.089-.062-.2-.131-.334-.206a2.6,2.6,0,0,0-.487-.206,2.3,2.3,0,0,0-.708-.094,2.356,2.356,0,0,0-.991.2,1.917,1.917,0,0,0-.716.575,2.612,2.612,0,0,0-.435.907,4.525,4.525,0,0,0-.146,1.192,4.366,4.366,0,0,0,.157,1.227,2.617,2.617,0,0,0,.447.9,1.921,1.921,0,0,0,.7.555,2.152,2.152,0,0,0,.919.191,2.365,2.365,0,0,0,.8-.116,2.406,2.406,0,0,0,.521-.259q.206-.142.345-.259a.424.424,0,0,1,.274-.116.3.3,0,0,1,.255.127l.375.488a2.663,2.663,0,0,1-.563.525,3.428,3.428,0,0,1-.679.364,3.709,3.709,0,0,1-.761.213,4.83,4.83,0,0,1-.81.068,3.322,3.322,0,0,1-1.324-.262,3.018,3.018,0,0,1-1.061-.762,3.559,3.559,0,0,1-.7-1.226A5.42,5.42,0,0,1,70.4,62.3a3.562,3.562,0,0,1,.69-1.241,3.12,3.12,0,0,1,1.118-.814,3.749,3.749,0,0,1,1.526-.293,3.614,3.614,0,0,1,1.414.259,3.4,3.4,0,0,1,1.083.731Z" transform="translate(89.045 -1.826)" fill="#fff"/>
        <path d="M80.82,59.951a3.874,3.874,0,0,1,1.5.278,3.216,3.216,0,0,1,1.14.788,3.457,3.457,0,0,1,.724,1.233,5.34,5.34,0,0,1,0,3.236,3.465,3.465,0,0,1-.724,1.231,3.178,3.178,0,0,1-1.14.783,3.911,3.911,0,0,1-1.5.274,3.961,3.961,0,0,1-1.511-.274,3.176,3.176,0,0,1-1.144-.783,3.449,3.449,0,0,1-.723-1.231,5.32,5.32,0,0,1,0-3.236,3.44,3.44,0,0,1,.723-1.233,3.214,3.214,0,0,1,1.144-.788A3.924,3.924,0,0,1,80.82,59.951Zm0,6.78a1.951,1.951,0,0,0,1.68-.753,4.286,4.286,0,0,0,0-4.219A1.947,1.947,0,0,0,80.82,61a2.36,2.36,0,0,0-.994.2,1.855,1.855,0,0,0-.7.563,2.52,2.52,0,0,0-.42.9,4.87,4.87,0,0,0-.138,1.211,3.476,3.476,0,0,0,.558,2.1A1.979,1.979,0,0,0,80.82,66.731Z" transform="translate(89.045 -1.826)" fill="#fff"/>
        <path d="M92.5,60.371v.495c0,.165-.105.271-.315.316l-.862.112a2.367,2.367,0,0,1,.254,1.1,2.3,2.3,0,0,1-.8,1.785,2.613,2.613,0,0,1-.9.495,3.632,3.632,0,0,1-1.14.173,3.843,3.843,0,0,1-1.005-.128,1.354,1.354,0,0,0-.367.318.569.569,0,0,0-.128.342.451.451,0,0,0,.221.408,1.583,1.583,0,0,0,.581.2,6.3,6.3,0,0,0,.822.076c.307.009.622.026.945.048a8.774,8.774,0,0,1,.945.117,2.83,2.83,0,0,1,.821.269,1.546,1.546,0,0,1,.581.518,1.5,1.5,0,0,1,.221.855,1.993,1.993,0,0,1-.243.945,2.568,2.568,0,0,1-.7.814,3.616,3.616,0,0,1-1.122.569,4.851,4.851,0,0,1-1.5.214,5.67,5.67,0,0,1-1.455-.165,3.415,3.415,0,0,1-1.035-.442,1.931,1.931,0,0,1-.619-.642,1.524,1.524,0,0,1-.206-.761,1.372,1.372,0,0,1,.352-.952,2.451,2.451,0,0,1,.968-.623,1.365,1.365,0,0,1-.536-.4,1.161,1.161,0,0,1-.139-1.02,1.418,1.418,0,0,1,.184-.352,1.92,1.92,0,0,1,.724-.611,2.34,2.34,0,0,1-.878-.836,2.3,2.3,0,0,1-.315-1.212,2.348,2.348,0,0,1,.214-1.009,2.235,2.235,0,0,1,.6-.773,2.757,2.757,0,0,1,.911-.491,3.978,3.978,0,0,1,2.082-.063,2.918,2.918,0,0,1,.78.318Zm-1.358,7.71a.637.637,0,0,0-.157-.449,1.06,1.06,0,0,0-.424-.271,2.742,2.742,0,0,0-.618-.138c-.236-.028-.484-.049-.747-.064l-.8-.045c-.27-.015-.531-.04-.781-.075a2.113,2.113,0,0,0-.686.491,1.008,1.008,0,0,0-.266.694.92.92,0,0,0,.131.476,1.11,1.11,0,0,0,.4.383,2.379,2.379,0,0,0,.678.255,4.9,4.9,0,0,0,1.931,0,2.432,2.432,0,0,0,.725-.277,1.366,1.366,0,0,0,.453-.428A1,1,0,0,0,91.14,68.081Zm-2.407-4.125a2.076,2.076,0,0,0,.713-.112,1.451,1.451,0,0,0,.517-.315,1.293,1.293,0,0,0,.315-.484,1.758,1.758,0,0,0,.1-.618,1.48,1.48,0,0,0-.424-1.111,2.042,2.042,0,0,0-2.46,0,1.484,1.484,0,0,0-.424,1.111,1.714,1.714,0,0,0,.109.618,1.34,1.34,0,0,0,.319.484,1.455,1.455,0,0,0,.518.315A2.063,2.063,0,0,0,88.733,63.956Z" transform="translate(89.045 -1.826)" fill="#fff"/>
        <path d="M95.145,61.174a4.421,4.421,0,0,1,.525-.5,3.457,3.457,0,0,1,.589-.387,3.058,3.058,0,0,1,.66-.247,3.113,3.113,0,0,1,.754-.087,2.772,2.772,0,0,1,1.1.206,2.136,2.136,0,0,1,.795.586,2.6,2.6,0,0,1,.484.911,4,4,0,0,1,.165,1.177v4.838H98.873V62.831a2.048,2.048,0,0,0-.394-1.338,1.46,1.46,0,0,0-1.2-.476,2.231,2.231,0,0,0-1.106.285,3.614,3.614,0,0,0-.949.772v5.595H93.885v-7.6h.8a.329.329,0,0,1,.352.278Z" transform="translate(89.045 -1.826)" fill="#fff"/>
        <path d="M103.95,57.687a.855.855,0,0,1-.078.363,1.072,1.072,0,0,1-.21.3.985.985,0,0,1-.308.206.953.953,0,0,1-.371.075.9.9,0,0,1-.364-.075.955.955,0,0,1-.3-.206,1.05,1.05,0,0,1-.2-.3.9.9,0,0,1-.074-.363.961.961,0,0,1,.074-.372,1.026,1.026,0,0,1,.2-.307.939.939,0,0,1,.3-.206.888.888,0,0,1,.364-.075.935.935,0,0,1,.371.075.968.968,0,0,1,.308.206,1.046,1.046,0,0,1,.21.307A.913.913,0,0,1,103.95,57.687Zm-.285,2.384v7.6H102.33v-7.6Z" transform="translate(89.045 -1.826)" fill="#fff"/>
        <path d="M112.905,67.669H111.57V61.188h-3.915v4.561a.975.975,0,0,0,.232.713.818.818,0,0,0,.6.232,1.065,1.065,0,0,0,.363-.056,1.471,1.471,0,0,0,.266-.124q.114-.068.192-.123a.248.248,0,0,1,.139-.057.231.231,0,0,1,.187.128l.39.637a2.5,2.5,0,0,1-.832.506,2.824,2.824,0,0,1-1,.184,1.832,1.832,0,0,1-1.384-.5,2,2,0,0,1-.484-1.447V61.188h-.915a.3.3,0,0,1-.2-.07.282.282,0,0,1-.082-.222v-.532l1.245-.165.308-2.34a.326.326,0,0,1,.1-.184.3.3,0,0,1,.206-.071h.675v2.618h5.25Zm.33-10.035a.845.845,0,0,1-.079.364,1,1,0,0,1-.209.3,1.015,1.015,0,0,1-.3.2.9.9,0,0,1-.368.075.872.872,0,0,1-.364-.075.966.966,0,0,1-.5-.5.888.888,0,0,1-.075-.364.935.935,0,0,1,.075-.371,1.01,1.01,0,0,1,.2-.308.955.955,0,0,1,.3-.206.888.888,0,0,1,.364-.075.914.914,0,0,1,.368.075.991.991,0,0,1,.3.206,1.029,1.029,0,0,1,.209.308A.889.889,0,0,1,113.235,57.634Z" transform="translate(89.045 -1.826)" fill="#fff"/>
        <path d="M121.605,60.071l-3.1,7.6h-1.2l-3.1-7.6H115.3a.424.424,0,0,1,.27.083.411.411,0,0,1,.142.195l1.928,4.89q.09.278.157.54c.046.175.088.35.128.525.04-.175.082-.35.128-.525s.1-.355.165-.54l1.949-4.89a.446.446,0,0,1,.15-.2.406.406,0,0,1,.248-.079Z" transform="translate(89.045 -1.826)" fill="#fff"/>
        <path d="M128.79,66.6a2.541,2.541,0,0,1-.592.521,3.733,3.733,0,0,1-.739.364,4.729,4.729,0,0,1-.814.214,5.017,5.017,0,0,1-.832.071,3.85,3.85,0,0,1-1.451-.266,3.191,3.191,0,0,1-1.148-.78,3.562,3.562,0,0,1-.754-1.272,5.167,5.167,0,0,1-.27-1.739,4.42,4.42,0,0,1,.244-1.486,3.5,3.5,0,0,1,.7-1.2,3.23,3.23,0,0,1,1.118-.795,3.677,3.677,0,0,1,1.485-.289,3.385,3.385,0,0,1,1.263.23,2.86,2.86,0,0,1,1.006.659,3.029,3.029,0,0,1,.663,1.065,4.06,4.06,0,0,1,.24,1.444.885.885,0,0,1-.067.42.28.28,0,0,1-.255.105H123.51a4.456,4.456,0,0,0,.2,1.252,2.527,2.527,0,0,0,.491.89,1.982,1.982,0,0,0,.75.532,2.585,2.585,0,0,0,.975.176,2.809,2.809,0,0,0,.866-.117,4.1,4.1,0,0,0,.627-.251,4.376,4.376,0,0,0,.438-.251.579.579,0,0,1,.3-.116.293.293,0,0,1,.255.127Zm-1.08-3.563a2.647,2.647,0,0,0-.131-.851,1.938,1.938,0,0,0-.382-.668,1.711,1.711,0,0,0-.612-.434,2.31,2.31,0,0,0-2.336.405,2.614,2.614,0,0,0-.694,1.548Z" transform="translate(89.045 -1.826)" fill="#fff"/>
        <path d="M135.66,61.249a3.918,3.918,0,0,1,1.11-.952,2.85,2.85,0,0,1,1.44-.36,2.773,2.773,0,0,1,1.193.251,2.433,2.433,0,0,1,.907.743,3.552,3.552,0,0,1,.577,1.218,6.25,6.25,0,0,1,.2,1.672,5.242,5.242,0,0,1-.225,1.564,3.761,3.761,0,0,1-.649,1.253,3,3,0,0,1-2.411,1.136,2.779,2.779,0,0,1-1.2-.236,2.831,2.831,0,0,1-.882-.656v3.359h-1.342V60.071h.8a.33.33,0,0,1,.353.278Zm.067,4.59a2.156,2.156,0,0,0,.8.7,2.268,2.268,0,0,0,.975.2,1.923,1.923,0,0,0,1.635-.758,3.534,3.534,0,0,0,.57-2.16,5.4,5.4,0,0,0-.131-1.274,2.492,2.492,0,0,0-.379-.874,1.475,1.475,0,0,0-.607-.5,2.026,2.026,0,0,0-.818-.157,2.152,2.152,0,0,0-1.144.3,3.308,3.308,0,0,0-.9.848Z" transform="translate(89.045 -1.826)" fill="#fff"/>
        <path d="M148.958,66.6a2.526,2.526,0,0,1-.593.521,3.706,3.706,0,0,1-.739.364,4.718,4.718,0,0,1-.813.214,5.038,5.038,0,0,1-.833.071,3.85,3.85,0,0,1-1.451-.266,3.187,3.187,0,0,1-1.147-.78,3.547,3.547,0,0,1-.754-1.272,5.167,5.167,0,0,1-.27-1.739,4.445,4.445,0,0,1,.243-1.486,3.527,3.527,0,0,1,.7-1.2,3.24,3.24,0,0,1,1.118-.795,3.677,3.677,0,0,1,1.485-.289,3.394,3.394,0,0,1,1.264.23,2.865,2.865,0,0,1,1,.659,3.046,3.046,0,0,1,.664,1.065,4.06,4.06,0,0,1,.239,1.444.872.872,0,0,1-.067.42.28.28,0,0,1-.255.105h-5.078a4.492,4.492,0,0,0,.2,1.252,2.543,2.543,0,0,0,.491.89,1.982,1.982,0,0,0,.75.532,2.591,2.591,0,0,0,.976.176,2.818,2.818,0,0,0,.866-.117,4.088,4.088,0,0,0,.626-.251,4.521,4.521,0,0,0,.439-.251.573.573,0,0,1,.3-.116.294.294,0,0,1,.256.127Zm-1.08-3.563a2.619,2.619,0,0,0-.132-.851,1.922,1.922,0,0,0-.382-.668,1.716,1.716,0,0,0-.611-.434,2.312,2.312,0,0,0-2.337.405,2.626,2.626,0,0,0-.694,1.548Z" transform="translate(89.045 -1.826)" fill="#fff"/>
        <path d="M150.517,61.144a4.371,4.371,0,0,1,1.358-.908,4.194,4.194,0,0,1,1.613-.3,2.9,2.9,0,0,1,1.132.209,2.321,2.321,0,0,1,.832.585,2.5,2.5,0,0,1,.511.908,3.81,3.81,0,0,1,.172,1.17v4.86h-.592a.588.588,0,0,1-.3-.064.437.437,0,0,1-.165-.251l-.15-.72c-.2.185-.395.348-.584.491a3.3,3.3,0,0,1-.6.36,3.247,3.247,0,0,1-.671.225,3.635,3.635,0,0,1-.791.079,2.714,2.714,0,0,1-.832-.124,1.9,1.9,0,0,1-.679-.371,1.751,1.751,0,0,1-.458-.626,2.2,2.2,0,0,1-.169-.9,1.675,1.675,0,0,1,.248-.866,2.184,2.184,0,0,1,.8-.739,5.232,5.232,0,0,1,1.447-.528,11.069,11.069,0,0,1,2.19-.237v-.592a2.036,2.036,0,0,0-.382-1.339,1.382,1.382,0,0,0-1.118-.453,2.394,2.394,0,0,0-.829.124,3.041,3.041,0,0,0-.577.277c-.163.1-.3.194-.42.277a.612.612,0,0,1-.349.124.385.385,0,0,1-.232-.071.635.635,0,0,1-.165-.177Zm4.313,3.1a10.887,10.887,0,0,0-1.571.147,4.452,4.452,0,0,0-1.058.3,1.452,1.452,0,0,0-.592.443.947.947,0,0,0-.184.57,1.242,1.242,0,0,0,.1.517.961.961,0,0,0,.266.356,1.068,1.068,0,0,0,.4.2,1.85,1.85,0,0,0,.491.064,2.707,2.707,0,0,0,.646-.072,2.479,2.479,0,0,0,.551-.206,3.088,3.088,0,0,0,.5-.323,4.226,4.226,0,0,0,.461-.427Z" transform="translate(89.045 -1.826)" fill="#fff"/>
        <path d="M159.51,56.621v6.5h.345a.683.683,0,0,0,.251-.041.611.611,0,0,0,.214-.169l2.4-2.572a.921.921,0,0,1,.222-.2.594.594,0,0,1,.311-.072h1.208l-2.8,2.978a1.67,1.67,0,0,1-.435.4,1.47,1.47,0,0,1,.244.206,2,2,0,0,1,.206.267l2.97,3.75h-1.192a.709.709,0,0,1-.3-.057.487.487,0,0,1-.213-.206l-2.5-3.112a.584.584,0,0,0-.221-.206.869.869,0,0,0-.334-.049h-.382v3.63h-1.343V56.621Z" transform="translate(89.045 -1.826)" fill="#fff"/>
      </g>
    </g>
    <g style="isolation: isolate">
      <g style="isolation: isolate">
        <path d="M10.11,12.874H8.985a.479.479,0,0,1-.315-.1.592.592,0,0,1-.18-.247l-1-2.6H2.663l-1,2.6a.535.535,0,0,1-.173.24.479.479,0,0,1-.315.105H.045l4.3-10.747H5.813ZM7.08,8.884,5.393,4.512c-.051-.13-.1-.282-.158-.454s-.108-.357-.157-.551a8.209,8.209,0,0,1-.323,1.012L3.067,8.884Z" transform="translate(89.045 -1.826)" fill="#fff"/>
        <path d="M12.442,6.379a4.421,4.421,0,0,1,.525-.5,3.518,3.518,0,0,1,.589-.387,3.058,3.058,0,0,1,.66-.247,3.164,3.164,0,0,1,.754-.087,2.772,2.772,0,0,1,1.1.206,2.136,2.136,0,0,1,.8.586,2.6,2.6,0,0,1,.484.911,3.962,3.962,0,0,1,.165,1.177v4.838H16.17V8.036A2.043,2.043,0,0,0,15.776,6.7a1.46,1.46,0,0,0-1.2-.476,2.231,2.231,0,0,0-1.106.285,3.614,3.614,0,0,0-.949.772v5.6H11.183v-7.6h.8a.329.329,0,0,1,.352.278Z" transform="translate(89.045 -1.826)" fill="#fff"/>
        <path d="M19.357,6.349a4.348,4.348,0,0,1,1.358-.908,4.189,4.189,0,0,1,1.612-.3,2.875,2.875,0,0,1,1.132.21,2.3,2.3,0,0,1,.833.585,2.475,2.475,0,0,1,.51.907,3.779,3.779,0,0,1,.173,1.17v4.86h-.593a.588.588,0,0,1-.3-.063.438.438,0,0,1-.165-.252l-.15-.72a7.331,7.331,0,0,1-.585.491,3.251,3.251,0,0,1-1.271.585,3.642,3.642,0,0,1-.791.079,2.725,2.725,0,0,1-.833-.124,1.92,1.92,0,0,1-.679-.371,1.748,1.748,0,0,1-.457-.626,2.2,2.2,0,0,1-.169-.9,1.675,1.675,0,0,1,.247-.867,2.191,2.191,0,0,1,.8-.739,5.257,5.257,0,0,1,1.447-.528,11.087,11.087,0,0,1,2.19-.237V8.014a2.033,2.033,0,0,0-.382-1.339,1.38,1.38,0,0,0-1.118-.453,2.388,2.388,0,0,0-.828.124,3.114,3.114,0,0,0-.578.277c-.162.1-.3.194-.42.277A.609.609,0,0,1,20,7.024a.388.388,0,0,1-.233-.071.65.65,0,0,1-.165-.177Zm4.312,3.105A10.915,10.915,0,0,0,22.1,9.6a4.443,4.443,0,0,0-1.057.3,1.463,1.463,0,0,0-.593.443.952.952,0,0,0-.183.57,1.259,1.259,0,0,0,.1.517.961.961,0,0,0,.266.356,1.08,1.08,0,0,0,.4.2,1.839,1.839,0,0,0,.491.064,2.7,2.7,0,0,0,.645-.072,2.4,2.4,0,0,0,.551-.206,3,3,0,0,0,.495-.323,4.051,4.051,0,0,0,.461-.427Z" transform="translate(89.045 -1.826)" fill="#fff"/>
        <path d="M28.387,1.826V12.874H27.052V1.826Z" transform="translate(89.045 -1.826)" fill="#fff"/>
        <path d="M37.1,5.276l-4.237,9.84a.674.674,0,0,1-.169.24.453.453,0,0,1-.311.09H31.4l1.387-3.014L29.647,5.276H30.8a.418.418,0,0,1,.274.086.463.463,0,0,1,.139.192l2.032,4.785a5.4,5.4,0,0,1,.2.66c.07-.235.145-.457.225-.668l1.972-4.777a.434.434,0,0,1,.154-.2.411.411,0,0,1,.244-.079Z" transform="translate(89.045 -1.826)" fill="#fff"/>
        <path d="M45.329,12.874H43.994V6.394H40.079v4.56a.971.971,0,0,0,.233.713.816.816,0,0,0,.6.232,1.065,1.065,0,0,0,.363-.056,1.515,1.515,0,0,0,.267-.124c.075-.045.139-.086.191-.123a.25.25,0,0,1,.139-.057.231.231,0,0,1,.187.128l.39.637a2.488,2.488,0,0,1-.832.507,2.837,2.837,0,0,1-1,.183,1.832,1.832,0,0,1-1.384-.5,2,2,0,0,1-.484-1.447V6.394h-.915a.3.3,0,0,1-.2-.071.282.282,0,0,1-.082-.221V5.569L38.789,5.4l.308-2.34a.332.332,0,0,1,.1-.184.3.3,0,0,1,.206-.071h.675V5.427h5.25Zm.33-10.035a.859.859,0,0,1-.078.364,1,1,0,0,1-.514.5.9.9,0,0,1-.368.075.872.872,0,0,1-.364-.075.966.966,0,0,1-.5-.5.888.888,0,0,1-.075-.364.935.935,0,0,1,.075-.371,1.01,1.01,0,0,1,.2-.308.955.955,0,0,1,.3-.206.888.888,0,0,1,.364-.075.914.914,0,0,1,.368.075.991.991,0,0,1,.3.206,1.051,1.051,0,0,1,.21.308A.9.9,0,0,1,45.659,2.839Z" transform="translate(89.045 -1.826)" fill="#fff"/>
        <path d="M52.807,6.627a.592.592,0,0,1-.12.127.269.269,0,0,1-.165.045.443.443,0,0,1-.248-.094c-.089-.062-.2-.131-.334-.206a2.6,2.6,0,0,0-.487-.206,2.3,2.3,0,0,0-.708-.094,2.356,2.356,0,0,0-.991.2,1.909,1.909,0,0,0-.716.575,2.612,2.612,0,0,0-.435.907,4.525,4.525,0,0,0-.146,1.192,4.366,4.366,0,0,0,.157,1.227,2.617,2.617,0,0,0,.447.9,1.921,1.921,0,0,0,.7.555,2.152,2.152,0,0,0,.919.191A2.2,2.2,0,0,0,52,11.569q.207-.143.346-.258a.421.421,0,0,1,.274-.117.3.3,0,0,1,.255.127l.375.488a2.687,2.687,0,0,1-.563.525,3.456,3.456,0,0,1-.679.364,3.709,3.709,0,0,1-.761.213,4.83,4.83,0,0,1-.81.068,3.322,3.322,0,0,1-1.324-.262,3.018,3.018,0,0,1-1.061-.762,3.559,3.559,0,0,1-.7-1.226,5,5,0,0,1-.255-1.658A5.017,5.017,0,0,1,47.328,7.5a3.562,3.562,0,0,1,.69-1.241,3.131,3.131,0,0,1,1.118-.814,3.749,3.749,0,0,1,1.526-.293,3.614,3.614,0,0,1,1.414.259,3.4,3.4,0,0,1,1.083.731Z" transform="translate(89.045 -1.826)" fill="#fff"/>
        <path d="M54.486,6.349a4.371,4.371,0,0,1,1.358-.908,4.194,4.194,0,0,1,1.613-.3,2.878,2.878,0,0,1,1.132.21,2.308,2.308,0,0,1,.832.585,2.491,2.491,0,0,1,.511.907,3.81,3.81,0,0,1,.172,1.17v4.86h-.592a.589.589,0,0,1-.3-.063.443.443,0,0,1-.165-.252l-.15-.72a7.507,7.507,0,0,1-.584.491,3.3,3.3,0,0,1-.6.36,3.247,3.247,0,0,1-.671.225,3.635,3.635,0,0,1-.791.079,2.714,2.714,0,0,1-.832-.124,1.9,1.9,0,0,1-.679-.371,1.751,1.751,0,0,1-.458-.626,2.2,2.2,0,0,1-.169-.9,1.676,1.676,0,0,1,.248-.867,2.184,2.184,0,0,1,.8-.739,5.232,5.232,0,0,1,1.447-.528,11.069,11.069,0,0,1,2.19-.237V8.014a2.038,2.038,0,0,0-.382-1.339A1.382,1.382,0,0,0,57.3,6.222a2.394,2.394,0,0,0-.829.124,3.1,3.1,0,0,0-.577.277c-.163.1-.3.194-.42.277a.612.612,0,0,1-.349.124.385.385,0,0,1-.232-.071.635.635,0,0,1-.165-.177ZM58.8,9.454a10.887,10.887,0,0,0-1.571.147,4.452,4.452,0,0,0-1.058.3,1.452,1.452,0,0,0-.592.443.947.947,0,0,0-.184.57,1.242,1.242,0,0,0,.1.517.961.961,0,0,0,.266.356,1.068,1.068,0,0,0,.4.2,1.85,1.85,0,0,0,.491.064,2.707,2.707,0,0,0,.646-.072,2.43,2.43,0,0,0,.551-.206,3.088,3.088,0,0,0,.495-.323,4.226,4.226,0,0,0,.461-.427Z" transform="translate(89.045 -1.826)" fill="#fff"/>
        <path d="M63.517,1.826V12.874H62.182V1.826Z" transform="translate(89.045 -1.826)" fill="#fff"/>
      </g>
      <g style="isolation: isolate">
        <path d="M2.333,24.454A3.916,3.916,0,0,1,3.442,23.5a2.85,2.85,0,0,1,1.44-.36,2.77,2.77,0,0,1,1.193.251,2.443,2.443,0,0,1,.907.743,3.553,3.553,0,0,1,.578,1.218,6.25,6.25,0,0,1,.2,1.672,5.242,5.242,0,0,1-.225,1.564,3.78,3.78,0,0,1-.649,1.253,3,3,0,0,1-2.411,1.136,2.787,2.787,0,0,1-1.2-.236,2.838,2.838,0,0,1-.881-.656v3.359H1.058V23.276h.8a.329.329,0,0,1,.352.278Zm.067,4.59a2.156,2.156,0,0,0,.8.7,2.262,2.262,0,0,0,.975.2,1.926,1.926,0,0,0,1.635-.757,3.546,3.546,0,0,0,.569-2.161,5.35,5.35,0,0,0-.131-1.274,2.473,2.473,0,0,0-.378-.874,1.472,1.472,0,0,0-.608-.5,2.023,2.023,0,0,0-.818-.157,2.149,2.149,0,0,0-1.143.3,3.308,3.308,0,0,0-.9.848Z" transform="translate(89.045 -1.826)" fill="#fff"/>
        <path d="M12.667,23.156a3.874,3.874,0,0,1,1.5.278,3.216,3.216,0,0,1,1.14.788,3.465,3.465,0,0,1,.724,1.233,5.34,5.34,0,0,1,0,3.236,3.465,3.465,0,0,1-.724,1.231,3.178,3.178,0,0,1-1.14.783,3.911,3.911,0,0,1-1.5.274,3.961,3.961,0,0,1-1.511-.274,3.168,3.168,0,0,1-1.144-.783,3.449,3.449,0,0,1-.723-1.231,5.32,5.32,0,0,1,0-3.236,3.449,3.449,0,0,1,.723-1.233,3.2,3.2,0,0,1,1.144-.788A3.924,3.924,0,0,1,12.667,23.156Zm0,6.781a1.949,1.949,0,0,0,1.68-.754,3.49,3.49,0,0,0,.555-2.1,3.522,3.522,0,0,0-.555-2.115,1.947,1.947,0,0,0-1.68-.758,2.36,2.36,0,0,0-.994.2,1.855,1.855,0,0,0-.7.563,2.52,2.52,0,0,0-.42.9,4.87,4.87,0,0,0-.138,1.211,3.476,3.476,0,0,0,.558,2.1A1.977,1.977,0,0,0,12.667,29.937Z" transform="translate(89.045 -1.826)" fill="#fff"/>
        <path d="M20.167,30.994a1.829,1.829,0,0,1-1.383-.5,2,2,0,0,1-.484-1.447v-4.65h-.915a.3.3,0,0,1-.2-.071A.278.278,0,0,1,17.1,24.1v-.533l1.245-.158.307-2.347a.332.332,0,0,1,.1-.184.3.3,0,0,1,.207-.071h.675v2.618h2.2v.967h-2.2v4.56a.971.971,0,0,0,.232.713.816.816,0,0,0,.6.232,1.071,1.071,0,0,0,.364-.056,1.5,1.5,0,0,0,.266-.124q.112-.068.192-.123a.245.245,0,0,1,.138-.057.231.231,0,0,1,.188.128l.39.637a2.483,2.483,0,0,1-.833.507A2.837,2.837,0,0,1,20.167,30.994Z" transform="translate(89.045 -1.826)" fill="#fff"/>
        <path d="M29.34,29.809a2.526,2.526,0,0,1-.593.521,3.653,3.653,0,0,1-.739.364,4.718,4.718,0,0,1-.813.214,5.029,5.029,0,0,1-.833.071,3.854,3.854,0,0,1-1.451-.266,3.187,3.187,0,0,1-1.147-.78,3.547,3.547,0,0,1-.754-1.272,5.167,5.167,0,0,1-.27-1.739,4.435,4.435,0,0,1,.243-1.485,3.518,3.518,0,0,1,.7-1.2,3.226,3.226,0,0,1,1.117-.795,3.677,3.677,0,0,1,1.485-.289,3.39,3.39,0,0,1,1.264.23,2.865,2.865,0,0,1,1.005.659,3.04,3.04,0,0,1,.664,1.065,4.06,4.06,0,0,1,.239,1.444.872.872,0,0,1-.067.42.28.28,0,0,1-.255.105H24.06a4.452,4.452,0,0,0,.2,1.252,2.535,2.535,0,0,0,.492.89,1.967,1.967,0,0,0,.75.532,2.585,2.585,0,0,0,.975.176,2.846,2.846,0,0,0,.866-.116,4.3,4.3,0,0,0,.626-.251,4.839,4.839,0,0,0,.439-.251.57.57,0,0,1,.3-.117.294.294,0,0,1,.256.127Zm-1.08-3.563a2.613,2.613,0,0,0-.132-.85,1.889,1.889,0,0,0-.382-.668,1.71,1.71,0,0,0-.611-.435A2.312,2.312,0,0,0,24.8,24.7a2.626,2.626,0,0,0-.694,1.548Z" transform="translate(89.045 -1.826)" fill="#fff"/>
        <path d="M32.354,24.379a4.5,4.5,0,0,1,.525-.5,3.518,3.518,0,0,1,.589-.387,3.058,3.058,0,0,1,.66-.247,3.164,3.164,0,0,1,.754-.087,2.772,2.772,0,0,1,1.1.206,2.136,2.136,0,0,1,.8.586,2.6,2.6,0,0,1,.484.911,3.962,3.962,0,0,1,.165,1.177v4.838H36.082V26.036a2.043,2.043,0,0,0-.394-1.338,1.46,1.46,0,0,0-1.2-.476,2.234,2.234,0,0,0-1.106.285,3.614,3.614,0,0,0-.949.772v5.595H31.1v-7.6h.8a.33.33,0,0,1,.353.278Z" transform="translate(89.045 -1.826)" fill="#fff"/>
        <path d="M46.41,30.874H45.075v-6.48H41.16v4.56a.971.971,0,0,0,.232.713.816.816,0,0,0,.6.232,1.075,1.075,0,0,0,.364-.056,1.538,1.538,0,0,0,.266-.124c.075-.045.139-.086.191-.123a.25.25,0,0,1,.139-.057.233.233,0,0,1,.188.128l.39.637a2.483,2.483,0,0,1-.833.507,2.837,2.837,0,0,1-1.005.183,1.829,1.829,0,0,1-1.383-.5,2,2,0,0,1-.484-1.447v-4.65H38.91a.3.3,0,0,1-.2-.071.278.278,0,0,1-.082-.221v-.533L39.87,23.4l.307-2.34a.332.332,0,0,1,.1-.184.3.3,0,0,1,.207-.071h.675v2.618h5.25Zm.33-10.035a.86.86,0,0,1-.079.364,1,1,0,0,1-.21.3,1.015,1.015,0,0,1-.3.2.893.893,0,0,1-.367.075.869.869,0,0,1-.364-.075.973.973,0,0,1-.5-.5.888.888,0,0,1-.075-.364.935.935,0,0,1,.075-.371,1.012,1.012,0,0,1,.2-.308.955.955,0,0,1,.3-.206.885.885,0,0,1,.364-.075.909.909,0,0,1,.367.075.991.991,0,0,1,.3.206,1.032,1.032,0,0,1,.21.308A.905.905,0,0,1,46.74,20.839Z" transform="translate(89.045 -1.826)" fill="#fff"/>
        <path d="M48.405,24.349a4.348,4.348,0,0,1,1.358-.908,4.189,4.189,0,0,1,1.612-.3,2.875,2.875,0,0,1,1.132.21,2.312,2.312,0,0,1,.833.585,2.475,2.475,0,0,1,.51.907,3.78,3.78,0,0,1,.172,1.17v4.86H53.43a.588.588,0,0,1-.3-.063.438.438,0,0,1-.165-.252l-.15-.72a7.331,7.331,0,0,1-.585.491,3.291,3.291,0,0,1-.6.36,3.256,3.256,0,0,1-.672.225,3.629,3.629,0,0,1-.791.079,2.723,2.723,0,0,1-.832-.124,1.92,1.92,0,0,1-.679-.371,1.748,1.748,0,0,1-.457-.626,2.184,2.184,0,0,1-.169-.9,1.675,1.675,0,0,1,.247-.867,2.184,2.184,0,0,1,.8-.739,5.257,5.257,0,0,1,1.447-.528,11.087,11.087,0,0,1,2.19-.237v-.592a2.033,2.033,0,0,0-.382-1.339,1.38,1.38,0,0,0-1.118-.453,2.388,2.388,0,0,0-.828.124,3.114,3.114,0,0,0-.578.277c-.162.1-.3.194-.42.277a.609.609,0,0,1-.349.124.387.387,0,0,1-.232-.071.65.65,0,0,1-.165-.177Zm4.312,3.105a10.915,10.915,0,0,0-1.571.147,4.443,4.443,0,0,0-1.057.3,1.463,1.463,0,0,0-.593.443.952.952,0,0,0-.183.57,1.259,1.259,0,0,0,.1.517.961.961,0,0,0,.266.356,1.072,1.072,0,0,0,.4.2,1.839,1.839,0,0,0,.491.064,2.7,2.7,0,0,0,.645-.072,2.4,2.4,0,0,0,.551-.206,3,3,0,0,0,.495-.323,4.137,4.137,0,0,0,.461-.427Z" transform="translate(89.045 -1.826)" fill="#fff"/>
        <path d="M57.435,19.826V30.874H56.1V19.826Z" transform="translate(89.045 -1.826)" fill="#fff"/>
      </g>
    </g>
    <path d="M69.533,88.748V80.806h97.205v7.942" transform="translate(89.045 -1.826)" fill="none" stroke="#fff" stroke-miterlimit="10" stroke-width="1.76"/>
  </g>
</svg>
