<svg xmlns="http://www.w3.org/2000/svg" width="78.8" height="78.8" viewBox="0 0 78.8 78.8">
  <g>
    <path d="M15.6,44.722v2.814H31.331l6.085-3.5L35.371,41.95a.887.887,0,0,1,1.266-1.242l2.368,2.413,3.371-1.943-3.381-2.7A.887.887,0,1,1,40.1,37.092l3.925,3.14,2.888-1.661-4.383-3.652a.888.888,0,0,1,1.135-1.365h0l4.886,4.073,1.372-.79-.144-3.405a6.814,6.814,0,0,1,2.686-6.371l3.023-2.247L54.35,23.021,46.5,27.733a.877.877,0,0,1-.344.112c-.021,0-.04.007-.062.009s-.035.006-.051.006a.9.9,0,0,1-.321-.059l-8.987-3.466a.532.532,0,0,0-.726.5v.976L39.2,28.207a.888.888,0,0,1,.176,1.242h0l-.006.008L30.5,40.991a.886.886,0,0,1-.984.3l-2.493-.831-7.973.57A3.725,3.725,0,0,0,15.6,44.722Z" fill="#fff"/>
    <path d="M39.4,0A39.4,39.4,0,0,1,78.8,39.4h0A39.4,39.4,0,0,1,39.4,78.8h0A39.4,39.4,0,0,1,0,39.4H0A39.4,39.4,0,0,1,39.4,0Zm3.7,54.634H64.392a.887.887,0,0,0,0-1.774H43.1a.887.887,0,0,0,0,1.774Zm21.292-7.1H52.859a.887.887,0,0,0,0,1.774H64.392a.886.886,0,1,0,0-1.772Zm.887-4.435a.887.887,0,0,0-.887-.887H59.957a.887.887,0,0,0,0,1.774h4.435a.889.889,0,0,0,.888-.885Zm-51.457,6.21a5.33,5.33,0,0,0,5.324,5.324H32.378a.872.872,0,0,0,.429-.112L64.821,36.777a.886.886,0,0,0,.355-1.192l-2.632-4.956-.015-.028a.887.887,0,0,0-1.211-.327h0l-.177.1L52.733,16.91a.887.887,0,0,0-1.18-.325l-5.732,3.079a3.442,3.442,0,0,0-1.7,3.968l.552,1.852-7.3-2.818a2.3,2.3,0,0,0-3.135,2.153v1.174L31.7,30.231l-5.08,8.463-7.687.55a5.507,5.507,0,0,0-5.1,5.472Z" fill="#fff"/>
    <path d="M15.6,49.31a3.549,3.549,0,0,0,3.549,3.549h13L63.2,35.648l-1.793-3.372-29.4,16.917a.886.886,0,0,1-.444.118Z" fill="#fff"/>
    <path d="M51.548,33.274l.11,2.564,7.93-4.57L56.9,27.022l-.454-.711-2.92,2.172A5.079,5.079,0,0,0,51.548,33.274Z" fill="#fff"/>
    <path d="M45.828,23.146l.733,2.47,5.093-3.054L53.418,21.5l-1.77-2.95L46.661,21.23A1.671,1.671,0,0,0,45.828,23.146Z" fill="#fff"/>
    <path d="M28.462,39.06l1.013.338,7.939-10.322-2.041-1.532Z" fill="#fff"/>
  </g>
</svg>
