<svg xmlns="http://www.w3.org/2000/svg" width="47.465" height="42.189" viewBox="0 0 47.465 42.189">
  <path d="M1.39,36.567H8.342v4.216a1.4,1.4,0,0,0,1.392,1.406H46.075a1.4,1.4,0,0,0,1.39-1.406V4.239a1.4,1.4,0,0,0-1.39-1.4H39.122V1.428a1.391,1.391,0,0,0-2.781-.074c0,.025,0,.049,0,.074V2.834H29.3V1.428a1.391,1.391,0,0,0-2.781,0h0V2.834H19.561V1.428a1.391,1.391,0,0,0-2.781-.074c0,.025,0,.049,0,.074V2.834H9.735a1.4,1.4,0,0,0-1.391,1.4v8.433C8.344,23.032,4.085,31,.5,34.082A1.416,1.416,0,0,0,.083,35.64a1.392,1.392,0,0,0,1.308.927Zm43.294,2.811H11.123V36.567H37.73a1.373,1.373,0,0,0,.89-.326,25.921,25.921,0,0,0,6.063-9.05ZM11.123,5.644h5.656V7.05a1.391,1.391,0,0,0,2.781.075V5.644h6.952V7.05a1.391,1.391,0,1,0,2.781,0V5.644h7.046V7.05a1.391,1.391,0,0,0,2.781.075q0-.038,0-.075V5.644h5.562v5.623H11.122ZM11.1,14.077H44.659c-.313,8.916-3.7,15.932-7.474,19.679H4.552C8.828,28.248,10.869,21.076,11.1,14.077Z" fill="#fff"/>
</svg>
