<svg xmlns="http://www.w3.org/2000/svg" width="73.042" height="73.04" viewBox="0 0 73.042 73.04">
  <g>
    <path d="M36.521,0A36.52,36.52,0,1,0,73.042,36.52,36.521,36.521,0,0,0,36.521,0ZM27.113,55.067c-1.83,1.83-10.094,4.342-11.03,4.621a.93.93,0,0,1-.246.034.854.854,0,0,1-.814-1.1c.281-.935,2.793-9.2,4.621-11.029a5.283,5.283,0,1,1,7.469,7.474ZM45.488,42.453A21.651,21.651,0,0,1,39.2,57.269a.962.962,0,0,1-.661.275.814.814,0,0,1-.245-.038.844.844,0,0,1-.6-.659l-.946-6.592-.911.814a.849.849,0,0,1-.568.217.86.86,0,0,1-.606-.25L23.672,40.047a.856.856,0,0,1-.034-1.175l.813-.911-6.587-.943a.855.855,0,0,1-.479-1.456,21.709,21.709,0,0,1,14.857-6.346c5.783-6.49,14.931-10.658,22.929-10.524a.855.855,0,0,1,.835.835c.189,8-4.02,17.132-10.517,22.926Z" fill="#fff"/>
    <path d="M47.008,32.554a4.16,4.16,0,1,1,0-5.883A4.139,4.139,0,0,1,47.008,32.554Z" fill="#fff"/>
  </g>
</svg>
