<svg xmlns="http://www.w3.org/2000/svg" width="100.518" height="100.516" viewBox="0 0 100.518 100.516">
  <g>
    <path d="M50.259,0A50.258,50.258,0,0,0,0,50.257v0a50.259,50.259,0,0,0,100.518,0v0A50.258,50.258,0,0,0,50.259,0Zm0,88.416A38.157,38.157,0,1,1,88.416,50.259,38.156,38.156,0,0,1,50.259,88.416Z" fill="#fff"/>
    <path d="M50.259,14.645A35.613,35.613,0,1,0,85.872,50.258,35.615,35.615,0,0,0,50.259,14.645ZM41.287,26.452a25.665,25.665,0,0,1,14.972-.921,1.272,1.272,0,0,1,.937,1.535h0A1.271,1.271,0,0,1,55.662,28a23.112,23.112,0,0,0-13.482.827,1.27,1.27,0,0,1-.9-2.377Zm2.612,6V42.627a1.272,1.272,0,1,1-2.544,0V32.452a1.272,1.272,0,0,1,2.544,0Zm-6.359,0a1.272,1.272,0,0,1,2.544,0V42.627a1.272,1.272,0,0,1-2.544,0Zm-3.5,35.761a1.273,1.273,0,0,1-1.8,0,25.438,25.438,0,0,1-2.553-32.92c.008-.01.014-.021.022-.03a1.272,1.272,0,0,1,1.781-.253h0a1.275,1.275,0,0,1,.253,1.782,22.9,22.9,0,0,0,2.293,29.62,1.273,1.273,0,0,1,0,1.8h0Zm10.97,2.118a4.3,4.3,0,1,1-8.581-.417l1.084-21.7L34.1,44.8a1.276,1.276,0,0,1-.372-.9V32.452a1.271,1.271,0,0,1,1.27-1.272h0a1.273,1.273,0,0,1,1.272,1.272V43.373l3.444,3.442a1.277,1.277,0,0,1,.372.963L38.963,70.036a1.727,1.727,0,0,0,.482,1.3l.011.011a1.791,1.791,0,0,0,2.533-.011h0a1.732,1.732,0,0,0,.48-1.3L41.356,47.778a1.277,1.277,0,0,1,.372-.963l3.444-3.442V32.452a1.272,1.272,0,0,1,2.544,0V43.9a1.276,1.276,0,0,1-.372.9l-3.417,3.417,1.084,21.7A3.83,3.83,0,0,1,45.01,70.331Zm8.234,5.193a25.76,25.76,0,0,1-5.978,0,1.271,1.271,0,0,1-1.116-1.408v0A1.27,1.27,0,0,1,47.561,73h0a23.469,23.469,0,0,0,5.39,0H53a1.271,1.271,0,0,1,1.39,1.14v0a1.272,1.272,0,0,1-1.143,1.384ZM64.1,69.932a3.983,3.983,0,0,1-1.018,3.046c-.091.1-.184.19-.281.281a4.444,4.444,0,0,1-6.277-.281,4.03,4.03,0,0,1-1.018-3.132L56.42,49.4a6.578,6.578,0,0,1-3.388-4.585,15.082,15.082,0,0,1,.421-7l.816-2.688a5.839,5.839,0,0,1,11.055,0v0l.816,2.688a15.082,15.082,0,0,1,.421,7A6.578,6.578,0,0,1,63.179,49.4Zm4.115-1.653a1.272,1.272,0,0,1-1.8,0l0,0a1.273,1.273,0,0,1,0-1.8,22.9,22.9,0,0,0,1.35-30.968,1.27,1.27,0,0,1,.152-1.791h0a1.273,1.273,0,0,1,1.792.157,25.439,25.439,0,0,1-1.495,34.4Z" fill="#fff"/>
    <path d="M64.058,44.374a4.026,4.026,0,0,1-2.639,3.038A1.272,1.272,0,0,0,60.6,48.66l.967,21.471a1.477,1.477,0,0,1-.382,1.153,1.966,1.966,0,0,1-2.766,0,1.535,1.535,0,0,1-.374-1.237L59,48.66a1.272,1.272,0,0,0-.822-1.248,4.026,4.026,0,0,1-2.639-3.038,12.536,12.536,0,0,1,.35-5.808l.816-2.689a3.3,3.3,0,0,1,6.188,0l.816,2.689A12.562,12.562,0,0,1,64.058,44.374Z" fill="#fff"/>
  </g>
</svg>
