<svg xmlns="http://www.w3.org/2000/svg" width="72.078" height="72.075" viewBox="0 0 72.078 72.075">
  <g>
    <path d="M35.249,25.735H29.917A11.5,11.5,0,0,1,18.463,15.021h5.331A11.5,11.5,0,0,1,35.249,25.735Z" fill="#fff"/>
    <path d="M36.04,47.929a2.3,2.3,0,0,1,2.3,2.3h0a2.3,2.3,0,0,1-2.3,2.3h0a2.3,2.3,0,0,1-2.3-2.3h0a2.3,2.3,0,0,1,2.3-2.3Z" fill="#fff"/>
    <rect x="30.683" y="35.684" width="10.713" height="1.531" fill="#fff"/>
    <rect x="30.683" y="38.745" width="10.713" height="1.531" fill="#fff"/>
    <path d="M41.4,42.767l.294.229a9.183,9.183,0,0,1,1.589,12.889h0a9.181,9.181,0,0,1-12.886,1.59l0,0A9.182,9.182,0,0,1,28.8,44.586h0A9.121,9.121,0,0,1,30.388,43l.294-.229v-.961h4.59v4.668a3.827,3.827,0,0,0,1.53,7.5h0a3.825,3.825,0,0,0,2.985-4.513v0A3.829,3.829,0,0,0,36.8,46.475V41.807H41.4Z" fill="#fff"/>
    <path d="M48.284,15.021h5.332A11.5,11.5,0,0,1,42.161,25.735H36.83A11.5,11.5,0,0,1,48.284,15.021Z" fill="#fff"/>
    <path d="M36.039,0A36.038,36.038,0,1,0,72.078,36.036v0A36.039,36.039,0,0,0,36.039,0ZM55.17,14.256A13.025,13.025,0,0,1,42.16,27.267H36.8v6.887h6.123v3.061h1.53v1.531h-1.53v1.53h1.53v1.531h-1.53v.222a10.828,10.828,0,0,1,1.32,1.32,10.713,10.713,0,0,1-1.319,15.093h0A10.715,10.715,0,0,1,29.144,42.029l.005,0V41.8H27.622V40.275h1.531v-1.53H27.622V37.214h1.531V34.153h6.121V27.266H29.917a13.025,13.025,0,0,1-13.01-13.011v-.764h6.887a13.02,13.02,0,0,1,12.245,8.655,13.02,13.02,0,0,1,12.245-8.655h6.887ZM42.926,31.092v1.531H41.4V31.092Zm-3.062,0v1.531h-1.53V31.092ZM29.152,32.623V31.092h1.53v1.531Zm3.06,0V31.092h1.531v1.531Z" fill="#fff"/>
  </g>
</svg>
