<svg xmlns="http://www.w3.org/2000/svg" xmlns:xlink="http://www.w3.org/1999/xlink" width="512.813" height="321.818" viewBox="0 0 512.813 321.818">
  <defs>
    <clipPath id="a" transform="translate(134.813 -1.891)">
      <path d="M74.485,216.2h-50.3V152.632c19.61-30.325,38.381-51.48,50.3-12.132Z" fill="none"/>
    </clipPath>
    <clipPath id="b" transform="translate(134.813 -1.891)">
      <path d="M212.142,216.2H119.774V120.59c18.452-39.7,69.127-47.885,92.368-11.61Z" fill="none"/>
    </clipPath>
  </defs>
  <g>
    <g clip-path="url(#a)">
      <g>
        <line x1="224.83" y1="42.429" x2="0.479" y2="201.039" fill="none" stroke="#fff" stroke-miterlimit="10" stroke-width="1.66"/>
        <line x1="232.919" y1="48.148" x2="8.568" y2="206.758" fill="none" stroke="#fff" stroke-miterlimit="10" stroke-width="1.66"/>
        <line x1="241.009" y1="53.867" x2="16.658" y2="212.477" fill="none" stroke="#fff" stroke-miterlimit="10" stroke-width="1.66"/>
        <line x1="249.098" y1="59.587" x2="24.747" y2="218.197" fill="none" stroke="#fff" stroke-miterlimit="10" stroke-width="1.66"/>
        <line x1="257.188" y1="65.306" x2="32.837" y2="223.916" fill="none" stroke="#fff" stroke-miterlimit="10" stroke-width="1.66"/>
        <line x1="265.278" y1="71.025" x2="40.927" y2="229.635" fill="none" stroke="#fff" stroke-miterlimit="10" stroke-width="1.66"/>
        <line x1="273.367" y1="76.744" x2="49.016" y2="235.354" fill="none" stroke="#fff" stroke-miterlimit="10" stroke-width="1.66"/>
        <line x1="281.457" y1="82.463" x2="57.106" y2="241.073" fill="none" stroke="#fff" stroke-miterlimit="10" stroke-width="1.66"/>
        <line x1="289.546" y1="88.182" x2="65.195" y2="246.792" fill="none" stroke="#fff" stroke-miterlimit="10" stroke-width="1.66"/>
        <line x1="297.636" y1="93.901" x2="73.285" y2="252.511" fill="none" stroke="#fff" stroke-miterlimit="10" stroke-width="1.66"/>
        <line x1="305.725" y1="99.62" x2="81.374" y2="258.23" fill="none" stroke="#fff" stroke-miterlimit="10" stroke-width="1.66"/>
        <line x1="313.815" y1="105.339" x2="89.464" y2="263.949" fill="none" stroke="#fff" stroke-miterlimit="10" stroke-width="1.66"/>
        <line x1="321.905" y1="111.058" x2="97.554" y2="269.668" fill="none" stroke="#fff" stroke-miterlimit="10" stroke-width="1.66"/>
        <line x1="329.994" y1="116.778" x2="105.643" y2="275.388" fill="none" stroke="#fff" stroke-miterlimit="10" stroke-width="1.66"/>
        <line x1="338.084" y1="122.497" x2="113.733" y2="281.107" fill="none" stroke="#fff" stroke-miterlimit="10" stroke-width="1.66"/>
        <line x1="346.173" y1="128.216" x2="121.822" y2="286.826" fill="none" stroke="#fff" stroke-miterlimit="10" stroke-width="1.66"/>
        <line x1="354.263" y1="133.935" x2="129.912" y2="292.545" fill="none" stroke="#fff" stroke-miterlimit="10" stroke-width="1.66"/>
        <line x1="362.352" y1="139.654" x2="138.001" y2="298.264" fill="none" stroke="#fff" stroke-miterlimit="10" stroke-width="1.66"/>
        <line x1="370.442" y1="145.373" x2="146.091" y2="303.983" fill="none" stroke="#fff" stroke-miterlimit="10" stroke-width="1.66"/>
        <line x1="378.532" y1="151.092" x2="154.181" y2="309.702" fill="none" stroke="#fff" stroke-miterlimit="10" stroke-width="1.66"/>
        <line x1="386.621" y1="156.811" x2="162.27" y2="315.421" fill="none" stroke="#fff" stroke-miterlimit="10" stroke-width="1.66"/>
        <line x1="394.711" y1="162.53" x2="170.36" y2="321.14" fill="none" stroke="#fff" stroke-miterlimit="10" stroke-width="1.66"/>
      </g>
    </g>
    <g clip-path="url(#b)">
      <g>
        <line x1="342.453" y1="42.429" x2="118.102" y2="201.039" fill="none" stroke="#fff" stroke-miterlimit="10" stroke-width="1.66"/>
        <line x1="350.542" y1="48.148" x2="126.191" y2="206.758" fill="none" stroke="#fff" stroke-miterlimit="10" stroke-width="1.66"/>
        <line x1="358.632" y1="53.867" x2="134.281" y2="212.477" fill="none" stroke="#fff" stroke-miterlimit="10" stroke-width="1.66"/>
        <line x1="366.721" y1="59.587" x2="142.37" y2="218.197" fill="none" stroke="#fff" stroke-miterlimit="10" stroke-width="1.66"/>
        <line x1="374.811" y1="65.306" x2="150.46" y2="223.916" fill="none" stroke="#fff" stroke-miterlimit="10" stroke-width="1.66"/>
        <line x1="382.9" y1="71.025" x2="158.549" y2="229.635" fill="none" stroke="#fff" stroke-miterlimit="10" stroke-width="1.66"/>
        <line x1="390.99" y1="76.744" x2="166.639" y2="235.354" fill="none" stroke="#fff" stroke-miterlimit="10" stroke-width="1.66"/>
        <line x1="399.08" y1="82.463" x2="174.729" y2="241.073" fill="none" stroke="#fff" stroke-miterlimit="10" stroke-width="1.66"/>
        <line x1="407.169" y1="88.182" x2="182.818" y2="246.792" fill="none" stroke="#fff" stroke-miterlimit="10" stroke-width="1.66"/>
        <line x1="415.259" y1="93.901" x2="190.908" y2="252.511" fill="none" stroke="#fff" stroke-miterlimit="10" stroke-width="1.66"/>
        <line x1="423.348" y1="99.62" x2="198.997" y2="258.23" fill="none" stroke="#fff" stroke-miterlimit="10" stroke-width="1.66"/>
        <line x1="431.438" y1="105.339" x2="207.087" y2="263.949" fill="none" stroke="#fff" stroke-miterlimit="10" stroke-width="1.66"/>
        <line x1="439.527" y1="111.058" x2="215.176" y2="269.668" fill="none" stroke="#fff" stroke-miterlimit="10" stroke-width="1.66"/>
        <line x1="447.617" y1="116.778" x2="223.266" y2="275.388" fill="none" stroke="#fff" stroke-miterlimit="10" stroke-width="1.66"/>
        <line x1="455.707" y1="122.497" x2="231.356" y2="281.107" fill="none" stroke="#fff" stroke-miterlimit="10" stroke-width="1.66"/>
        <line x1="463.796" y1="128.216" x2="239.445" y2="286.826" fill="none" stroke="#fff" stroke-miterlimit="10" stroke-width="1.66"/>
        <line x1="471.886" y1="133.935" x2="247.535" y2="292.545" fill="none" stroke="#fff" stroke-miterlimit="10" stroke-width="1.66"/>
        <line x1="479.975" y1="139.654" x2="255.624" y2="298.264" fill="none" stroke="#fff" stroke-miterlimit="10" stroke-width="1.66"/>
        <line x1="488.065" y1="145.373" x2="263.714" y2="303.983" fill="none" stroke="#fff" stroke-miterlimit="10" stroke-width="1.66"/>
        <line x1="496.154" y1="151.092" x2="271.803" y2="309.702" fill="none" stroke="#fff" stroke-miterlimit="10" stroke-width="1.66"/>
        <line x1="504.244" y1="156.811" x2="279.893" y2="315.421" fill="none" stroke="#fff" stroke-miterlimit="10" stroke-width="1.66"/>
        <line x1="512.334" y1="162.53" x2="287.983" y2="321.14" fill="none" stroke="#fff" stroke-miterlimit="10" stroke-width="1.66"/>
      </g>
    </g>
    <path d="M24.185,152.632c10.727-19.668,23.837-34.225,35.755-33.4s10.131,33.4,32.776,33.4,25.028-67.178,81.045-67.178c36.351,0,66.492,59.964,71.087,95.943" transform="translate(134.813 -1.891)" fill="none" stroke="#bbffe8" stroke-miterlimit="10" stroke-width="3.655"/>
    <path d="M252.267,216.2H24.185V43.1" transform="translate(134.813 -1.891)" fill="none" stroke="#fff" stroke-miterlimit="10" stroke-width="2.833"/>
    <path d="M31.409,53.81l-7.2-10.719L16.965,53.868" transform="translate(134.813 -1.891)" fill="none" stroke="#fff" stroke-miterlimit="10" stroke-width="2.382"/>
    <path d="M241.548,223.421l10.718-7.2-10.777-7.243" transform="translate(134.813 -1.891)" fill="none" stroke="#fff" stroke-miterlimit="10" stroke-width="2.382"/>
    <g style="isolation: isolate">
      <g style="isolation: isolate">
        <path d="M231.244,230.666h-4.267v11.68H225.2v-11.68h-4.277v-1.5h10.319Z" transform="translate(134.813 -1.891)" fill="#fff"/>
        <path d="M234.831,230.105a1.048,1.048,0,0,1-.1.446,1.281,1.281,0,0,1-.258.367,1.187,1.187,0,0,1-.832.346,1.081,1.081,0,0,1-.447-.093,1.142,1.142,0,0,1-.363-.253,1.231,1.231,0,0,1-.248-.367,1.092,1.092,0,0,1-.092-.446,1.153,1.153,0,0,1,.092-.455,1.205,1.205,0,0,1,.248-.377,1.192,1.192,0,0,1,.363-.253,1.081,1.081,0,0,1,.447-.092,1.139,1.139,0,0,1,.455.092,1.2,1.2,0,0,1,.377.253,1.25,1.25,0,0,1,.258.377A1.106,1.106,0,0,1,234.831,230.105Zm-.349,2.925v9.316h-1.638V233.03Z" transform="translate(134.813 -1.891)" fill="#fff"/>
        <path d="M237.167,242.346V233.03h.984a.4.4,0,0,1,.432.34l.12.957a4.724,4.724,0,0,1,1.159-1.039,2.728,2.728,0,0,1,1.49-.406,2.19,2.19,0,0,1,1.522.525,2.95,2.95,0,0,1,.842,1.416,3.056,3.056,0,0,1,.519-.873,2.969,2.969,0,0,1,.713-.608,3.036,3.036,0,0,1,.841-.349,3.739,3.739,0,0,1,.906-.111,3.436,3.436,0,0,1,1.311.235,2.588,2.588,0,0,1,.975.685,3.064,3.064,0,0,1,.611,1.109,4.9,4.9,0,0,1,.212,1.5v5.931h-1.647v-5.931a2.51,2.51,0,0,0-.478-1.661,1.7,1.7,0,0,0-1.379-.566,2.083,2.083,0,0,0-.768.143,1.834,1.834,0,0,0-.639.419,1.947,1.947,0,0,0-.437.694,2.678,2.678,0,0,0-.161.971v5.931h-1.646v-5.931a2.612,2.612,0,0,0-.451-1.674,1.6,1.6,0,0,0-1.315-.553,2.057,2.057,0,0,0-1.123.327,3.733,3.733,0,0,0-.947.888v6.943Z" transform="translate(134.813 -1.891)" fill="#fff"/>
        <path d="M259.856,241.041a3.1,3.1,0,0,1-.726.638,4.522,4.522,0,0,1-.907.446,5.579,5.579,0,0,1-1,.262,6.027,6.027,0,0,1-1.021.088,4.753,4.753,0,0,1-1.78-.326,3.912,3.912,0,0,1-1.407-.957,4.372,4.372,0,0,1-.924-1.559,6.331,6.331,0,0,1-.332-2.133,5.441,5.441,0,0,1,.3-1.822,4.3,4.3,0,0,1,.861-1.467,3.939,3.939,0,0,1,1.37-.974,4.479,4.479,0,0,1,1.821-.355,4.19,4.19,0,0,1,1.549.281,3.512,3.512,0,0,1,1.233.809,3.73,3.73,0,0,1,.814,1.306,4.977,4.977,0,0,1,.294,1.77,1.073,1.073,0,0,1-.083.516.342.342,0,0,1-.312.129h-6.227a5.466,5.466,0,0,0,.244,1.535,3.084,3.084,0,0,0,.6,1.09,2.414,2.414,0,0,0,.92.653,3.142,3.142,0,0,0,1.2.216,3.472,3.472,0,0,0,1.062-.143,5.022,5.022,0,0,0,.768-.307,5.835,5.835,0,0,0,.538-.309.711.711,0,0,1,.372-.142.359.359,0,0,1,.313.157Zm-1.325-4.37a3.247,3.247,0,0,0-.16-1.044,2.376,2.376,0,0,0-.469-.818,2.108,2.108,0,0,0-.75-.533,2.831,2.831,0,0,0-2.865.5,3.211,3.211,0,0,0-.851,1.9Z" transform="translate(134.813 -1.891)" fill="#fff"/>
      </g>
    </g>
    <g style="isolation: isolate">
      <g style="isolation: isolate">
        <path d="M129.066,47.518a.555.555,0,0,1-.12.128.276.276,0,0,1-.167.046.443.443,0,0,1-.249-.095c-.09-.062-.2-.132-.335-.207a2.775,2.775,0,0,0-.491-.208,2.365,2.365,0,0,0-.713-.094,2.339,2.339,0,0,0-1,.2,1.905,1.905,0,0,0-.721.578,2.594,2.594,0,0,0-.438.913,4.533,4.533,0,0,0-.147,1.2,4.4,4.4,0,0,0,.158,1.233,2.647,2.647,0,0,0,.449.907,1.943,1.943,0,0,0,.7.558,2.162,2.162,0,0,0,.925.193,2.332,2.332,0,0,0,.807-.118,2.375,2.375,0,0,0,.525-.26c.139-.1.254-.182.347-.26a.432.432,0,0,1,.275-.117.3.3,0,0,1,.257.128l.378.491a2.692,2.692,0,0,1-.566.528,3.468,3.468,0,0,1-.683.365,3.716,3.716,0,0,1-.766.216,4.91,4.91,0,0,1-.816.068,3.341,3.341,0,0,1-1.332-.264,3.048,3.048,0,0,1-1.068-.767,3.583,3.583,0,0,1-.709-1.233,5.447,5.447,0,0,1-.019-3.246,3.566,3.566,0,0,1,.694-1.249,3.17,3.17,0,0,1,1.125-.819,3.778,3.778,0,0,1,1.536-.294,3.624,3.624,0,0,1,1.423.26,3.413,3.413,0,0,1,1.09.736Z" transform="translate(134.813 -1.891)" fill="#fff"/>
        <path d="M132.229,47.692a3.436,3.436,0,0,1,.89-1.227,1.941,1.941,0,0,1,1.291-.441,2.018,2.018,0,0,1,.464.053,1.233,1.233,0,0,1,.4.166l-.1,1a.216.216,0,0,1-.227.188,1.57,1.57,0,0,1-.309-.045,2.138,2.138,0,0,0-.46-.046,1.827,1.827,0,0,0-.646.106,1.537,1.537,0,0,0-.506.313,2.229,2.229,0,0,0-.4.514,4.236,4.236,0,0,0-.321.7v4.83h-1.351V46.16h.77a.419.419,0,0,1,.3.083.5.5,0,0,1,.114.287Z" transform="translate(134.813 -1.891)" fill="#fff"/>
        <path d="M142.342,52.734a2.533,2.533,0,0,1-.6.524,3.7,3.7,0,0,1-.743.367,4.784,4.784,0,0,1-.819.214,4.984,4.984,0,0,1-.838.072,3.878,3.878,0,0,1-1.46-.268,3.2,3.2,0,0,1-1.155-.785,3.6,3.6,0,0,1-.759-1.279,5.206,5.206,0,0,1-.271-1.751,4.444,4.444,0,0,1,.245-1.5,3.526,3.526,0,0,1,.706-1.2,3.232,3.232,0,0,1,1.124-.8,3.672,3.672,0,0,1,1.495-.291,3.448,3.448,0,0,1,1.271.23,2.874,2.874,0,0,1,1.012.664,3.047,3.047,0,0,1,.668,1.072,4.084,4.084,0,0,1,.241,1.453.892.892,0,0,1-.067.422.283.283,0,0,1-.257.106h-5.11a4.484,4.484,0,0,0,.2,1.261,2.519,2.519,0,0,0,.495.894,1.987,1.987,0,0,0,.754.536,2.6,2.6,0,0,0,.981.177,2.88,2.88,0,0,0,.872-.117,4,4,0,0,0,.63-.253,4.686,4.686,0,0,0,.442-.252.584.584,0,0,1,.305-.117.3.3,0,0,1,.257.128Zm-1.086-3.586a2.673,2.673,0,0,0-.132-.856,1.937,1.937,0,0,0-.385-.672,1.733,1.733,0,0,0-.615-.438,2.1,2.1,0,0,0-.823-.154,2.07,2.07,0,0,0-1.529.561,2.638,2.638,0,0,0-.7,1.559Z" transform="translate(134.813 -1.891)" fill="#fff"/>
        <path d="M143.913,47.239a4.371,4.371,0,0,1,1.365-.913,4.23,4.23,0,0,1,1.623-.3,2.894,2.894,0,0,1,1.14.211,2.316,2.316,0,0,1,.837.589,2.486,2.486,0,0,1,.514.913,3.8,3.8,0,0,1,.173,1.178v4.89h-.6a.585.585,0,0,1-.3-.064.44.44,0,0,1-.166-.253l-.151-.725a7.231,7.231,0,0,1-.588.5,3.25,3.25,0,0,1-1.28.589,3.683,3.683,0,0,1-.8.079,2.758,2.758,0,0,1-.838-.125,1.934,1.934,0,0,1-.683-.373,1.766,1.766,0,0,1-.46-.631,2.2,2.2,0,0,1-.17-.9,1.683,1.683,0,0,1,.249-.872,2.177,2.177,0,0,1,.808-.743,5.264,5.264,0,0,1,1.456-.532,11.124,11.124,0,0,1,2.2-.239v-.595a2.045,2.045,0,0,0-.385-1.348,1.387,1.387,0,0,0-1.124-.456,2.416,2.416,0,0,0-.834.124,3.18,3.18,0,0,0-.581.279c-.164.1-.305.2-.423.279a.612.612,0,0,1-.351.125.383.383,0,0,1-.234-.072.638.638,0,0,1-.166-.177Zm4.339,3.125a11.188,11.188,0,0,0-1.581.146,4.532,4.532,0,0,0-1.064.306,1.47,1.47,0,0,0-.6.445.957.957,0,0,0-.185.574,1.255,1.255,0,0,0,.1.521.954.954,0,0,0,.268.358,1.061,1.061,0,0,0,.4.2,1.821,1.821,0,0,0,.494.065,2.779,2.779,0,0,0,.649-.072,2.545,2.545,0,0,0,.555-.207,3.2,3.2,0,0,0,.5-.326,4.181,4.181,0,0,0,.464-.429Z" transform="translate(134.813 -1.891)" fill="#fff"/>
        <path d="M158.607,53.805h-1.343V47.284h-3.94v4.589a.976.976,0,0,0,.234.717.818.818,0,0,0,.6.234,1.058,1.058,0,0,0,.366-.057,1.527,1.527,0,0,0,.268-.124c.076-.046.14-.087.193-.125a.258.258,0,0,1,.139-.057.232.232,0,0,1,.189.129l.392.642a2.5,2.5,0,0,1-.837.509,2.833,2.833,0,0,1-1.012.185,1.841,1.841,0,0,1-1.392-.506,2.017,2.017,0,0,1-.487-1.457V47.284h-.921a.3.3,0,0,1-.2-.072.278.278,0,0,1-.083-.222v-.536l1.253-.166.309-2.355a.331.331,0,0,1,.1-.184.3.3,0,0,1,.207-.073h.679V46.31h5.283Zm.332-10.1a.857.857,0,0,1-.079.366.984.984,0,0,1-.211.3,1.018,1.018,0,0,1-.306.2.919.919,0,0,1-.369.075.9.9,0,0,1-.367-.075.991.991,0,0,1-.5-.5.9.9,0,0,1-.075-.366.954.954,0,0,1,.075-.374,1.01,1.01,0,0,1,.205-.309.954.954,0,0,1,.3-.208.9.9,0,0,1,.367-.075.919.919,0,0,1,.369.075.993.993,0,0,1,.306.208,1.009,1.009,0,0,1,.211.309A.907.907,0,0,1,158.939,43.707Z" transform="translate(134.813 -1.891)" fill="#fff"/>
        <path d="M167.362,46.16l-3.116,7.645h-1.208l-3.117-7.645h1.094a.426.426,0,0,1,.272.083.416.416,0,0,1,.143.2l1.94,4.921q.09.279.158.543c.046.177.088.352.129.528.04-.176.083-.351.128-.528s.1-.357.166-.543l1.963-4.921a.429.429,0,0,1,.15-.2.4.4,0,0,1,.249-.079Z" transform="translate(134.813 -1.891)" fill="#fff"/>
        <path d="M170.306,43.759a.866.866,0,0,1-.079.366,1.069,1.069,0,0,1-.212.3.984.984,0,0,1-.309.208.954.954,0,0,1-.374.075.894.894,0,0,1-.366-.075.958.958,0,0,1-.3-.208,1.006,1.006,0,0,1-.2-.3.894.894,0,0,1-.075-.366.945.945,0,0,1,.075-.373.99.99,0,0,1,.2-.309.942.942,0,0,1,.3-.208.9.9,0,0,1,.366-.076.954.954,0,0,1,.374.076.967.967,0,0,1,.309.208,1.048,1.048,0,0,1,.212.309A.915.915,0,0,1,170.306,43.759Zm-.287,2.4v7.645h-1.344V46.16Z" transform="translate(134.813 -1.891)" fill="#fff"/>
        <path d="M174.57,53.926a1.841,1.841,0,0,1-1.392-.506,2.017,2.017,0,0,1-.487-1.457V47.284h-.921a.3.3,0,0,1-.2-.072.278.278,0,0,1-.083-.222v-.536l1.253-.159.309-2.362a.336.336,0,0,1,.1-.184.3.3,0,0,1,.208-.073h.679V46.31h2.212v.974h-2.212v4.589a.976.976,0,0,0,.234.717.817.817,0,0,0,.6.234,1.058,1.058,0,0,0,.366-.057,1.527,1.527,0,0,0,.268-.124c.076-.046.14-.087.193-.125a.255.255,0,0,1,.139-.057.232.232,0,0,1,.189.129l.392.642a2.5,2.5,0,0,1-.837.509A2.837,2.837,0,0,1,174.57,53.926Z" transform="translate(134.813 -1.891)" fill="#fff"/>
        <path d="M184.23,46.16l-4.264,9.9a.69.69,0,0,1-.17.241.455.455,0,0,1-.313.091h-1l1.4-3.034-3.154-7.2h1.162a.41.41,0,0,1,.275.087.459.459,0,0,1,.14.192l2.045,4.815a5.239,5.239,0,0,1,.2.664c.07-.236.146-.46.226-.671l1.985-4.808a.427.427,0,0,1,.155-.2.408.408,0,0,1,.246-.079Z" transform="translate(134.813 -1.891)" fill="#fff"/>
        <path d="M190.193,47.344a3.953,3.953,0,0,1,1.117-.958,2.862,2.862,0,0,1,1.449-.362,2.77,2.77,0,0,1,1.2.253,2.456,2.456,0,0,1,.914.747,3.59,3.59,0,0,1,.581,1.226,6.336,6.336,0,0,1,.2,1.683,5.276,5.276,0,0,1-.226,1.574,3.766,3.766,0,0,1-.653,1.26,3.023,3.023,0,0,1-2.426,1.144,2.783,2.783,0,0,1-1.2-.238,2.836,2.836,0,0,1-.887-.661v3.382H188.91V46.16h.807a.33.33,0,0,1,.355.279Zm.068,4.619a2.169,2.169,0,0,0,.807.7,2.315,2.315,0,0,0,.982.2,1.933,1.933,0,0,0,1.645-.763,3.562,3.562,0,0,0,.574-2.174,5.426,5.426,0,0,0-.132-1.283,2.529,2.529,0,0,0-.382-.879,1.481,1.481,0,0,0-.611-.5,2.048,2.048,0,0,0-.823-.158,2.16,2.16,0,0,0-1.151.3,3.325,3.325,0,0,0-.909.852Z" transform="translate(134.813 -1.891)" fill="#fff"/>
        <path d="M203.574,52.734a2.553,2.553,0,0,1-.6.524,3.7,3.7,0,0,1-.743.367,4.784,4.784,0,0,1-.819.214,4.993,4.993,0,0,1-.838.072,3.878,3.878,0,0,1-1.46-.268,3.2,3.2,0,0,1-1.155-.785,3.6,3.6,0,0,1-.759-1.279,5.206,5.206,0,0,1-.271-1.751,4.444,4.444,0,0,1,.245-1.5,3.526,3.526,0,0,1,.706-1.2,3.232,3.232,0,0,1,1.124-.8,3.671,3.671,0,0,1,1.494-.291,3.453,3.453,0,0,1,1.272.23,2.883,2.883,0,0,1,1.012.664,3.061,3.061,0,0,1,.668,1.072,4.084,4.084,0,0,1,.241,1.453.876.876,0,0,1-.068.422.28.28,0,0,1-.256.106h-5.11a4.484,4.484,0,0,0,.2,1.261,2.519,2.519,0,0,0,.495.894,1.987,1.987,0,0,0,.754.536,2.6,2.6,0,0,0,.981.177,2.88,2.88,0,0,0,.872-.117,4,4,0,0,0,.63-.253,4.686,4.686,0,0,0,.442-.252.584.584,0,0,1,.305-.117.3.3,0,0,1,.257.128Zm-1.086-3.586a2.645,2.645,0,0,0-.133-.856,1.92,1.92,0,0,0-.384-.672,1.728,1.728,0,0,0-.616-.438,2.092,2.092,0,0,0-.822-.154,2.07,2.07,0,0,0-1.529.561,2.638,2.638,0,0,0-.7,1.559Z" transform="translate(134.813 -1.891)" fill="#fff"/>
        <path d="M205.145,47.239a4.359,4.359,0,0,1,1.365-.913,4.23,4.23,0,0,1,1.623-.3,2.894,2.894,0,0,1,1.14.211,2.316,2.316,0,0,1,.837.589,2.486,2.486,0,0,1,.514.913,3.8,3.8,0,0,1,.173,1.178v4.89h-.6a.585.585,0,0,1-.3-.064.435.435,0,0,1-.166-.253l-.151-.725a7.231,7.231,0,0,1-.588.5,3.25,3.25,0,0,1-1.28.589,3.683,3.683,0,0,1-.8.079,2.758,2.758,0,0,1-.838-.125,1.934,1.934,0,0,1-.683-.373,1.766,1.766,0,0,1-.46-.631,2.2,2.2,0,0,1-.17-.9,1.683,1.683,0,0,1,.249-.872,2.177,2.177,0,0,1,.808-.743,5.264,5.264,0,0,1,1.456-.532,11.124,11.124,0,0,1,2.2-.239v-.595a2.045,2.045,0,0,0-.385-1.348,1.387,1.387,0,0,0-1.124-.456,2.416,2.416,0,0,0-.834.124,3.18,3.18,0,0,0-.581.279c-.164.1-.305.2-.423.279a.612.612,0,0,1-.351.125.383.383,0,0,1-.234-.072.638.638,0,0,1-.166-.177Zm4.339,3.125a11.188,11.188,0,0,0-1.581.146,4.532,4.532,0,0,0-1.064.306,1.463,1.463,0,0,0-.6.445.957.957,0,0,0-.185.574,1.255,1.255,0,0,0,.1.521.954.954,0,0,0,.268.358,1.061,1.061,0,0,0,.4.2,1.821,1.821,0,0,0,.494.065,2.779,2.779,0,0,0,.649-.072,2.545,2.545,0,0,0,.555-.207,3.2,3.2,0,0,0,.5-.326,4.181,4.181,0,0,0,.464-.429Z" transform="translate(134.813 -1.891)" fill="#fff"/>
        <path d="M214.194,42.688v6.543h.347a.687.687,0,0,0,.253-.041.6.6,0,0,0,.215-.17l2.415-2.589a.932.932,0,0,1,.223-.2.592.592,0,0,1,.313-.071h1.215l-2.815,3a1.712,1.712,0,0,1-.438.4,1.363,1.363,0,0,1,.245.207,1.822,1.822,0,0,1,.208.269l2.989,3.773h-1.2a.711.711,0,0,1-.3-.056.5.5,0,0,1-.215-.208l-2.514-3.132a.583.583,0,0,0-.222-.207.84.84,0,0,0-.336-.05h-.385v3.653h-1.351V42.688Z" transform="translate(134.813 -1.891)" fill="#fff"/>
        <path d="M224.964,47.42a.3.3,0,0,1-.279.166.527.527,0,0,1-.257-.083c-.095-.055-.213-.117-.351-.185a3.332,3.332,0,0,0-.494-.189,2.391,2.391,0,0,0-.68-.087,2.03,2.03,0,0,0-.611.087,1.472,1.472,0,0,0-.464.238,1.052,1.052,0,0,0-.294.351.943.943,0,0,0-.1.434.721.721,0,0,0,.17.491,1.449,1.449,0,0,0,.449.339,3.772,3.772,0,0,0,.634.253q.354.109.728.234t.728.276a2.607,2.607,0,0,1,.634.377,1.749,1.749,0,0,1,.45.554,1.72,1.72,0,0,1,.169.789,2.514,2.514,0,0,1-.188.978,2.126,2.126,0,0,1-.559.777,2.676,2.676,0,0,1-.906.517,3.711,3.711,0,0,1-1.238.189,3.874,3.874,0,0,1-1.449-.26,3.687,3.687,0,0,1-1.1-.668l.317-.514a.462.462,0,0,1,.143-.151.388.388,0,0,1,.211-.052.508.508,0,0,1,.287.105q.151.106.366.235a2.767,2.767,0,0,0,.525.233,2.42,2.42,0,0,0,.769.105,2.1,2.1,0,0,0,.687-.1,1.435,1.435,0,0,0,.491-.275,1.116,1.116,0,0,0,.291-.4,1.251,1.251,0,0,0,.094-.482.8.8,0,0,0-.17-.525,1.437,1.437,0,0,0-.449-.355,3.593,3.593,0,0,0-.638-.256q-.358-.11-.732-.231c-.249-.081-.493-.172-.732-.275a2.568,2.568,0,0,1-.638-.389,1.752,1.752,0,0,1-.449-.578,1.867,1.867,0,0,1-.17-.834,2.038,2.038,0,0,1,.181-.84,2.058,2.058,0,0,1,.529-.71,2.572,2.572,0,0,1,.853-.487,3.4,3.4,0,0,1,1.155-.181,3.642,3.642,0,0,1,1.354.238,3.211,3.211,0,0,1,1.038.652Z" transform="translate(134.813 -1.891)" fill="#fff"/>
      </g>
    </g>
    <g style="isolation: isolate">
      <g style="isolation: isolate">
        <path d="M8.974,10.721a.284.284,0,0,1,.212.1l.581.626a4.634,4.634,0,0,1-1.612,1.2,5.514,5.514,0,0,1-2.291.43,5.356,5.356,0,0,1-2.113-.4A4.655,4.655,0,0,1,2.128,11.54,5.117,5.117,0,0,1,1.087,9.793a6.522,6.522,0,0,1-.37-2.242A6.28,6.28,0,0,1,1.1,5.31,5.119,5.119,0,0,1,2.185,3.559,4.812,4.812,0,0,1,3.857,2.423a5.547,5.547,0,0,1,2.151-.4,5.243,5.243,0,0,1,2.037.37,5.13,5.13,0,0,1,1.556,1l-.484.671A.386.386,0,0,1,9,4.188a.324.324,0,0,1-.192.049.6.6,0,0,1-.332-.146,4.749,4.749,0,0,0-.514-.328,3.948,3.948,0,0,0-.792-.329A4.009,4.009,0,0,0,6,3.287a3.945,3.945,0,0,0-1.532.29,3.346,3.346,0,0,0-1.2.842,3.867,3.867,0,0,0-.781,1.344,5.359,5.359,0,0,0-.28,1.788,5.2,5.2,0,0,0,.291,1.8,3.984,3.984,0,0,0,.792,1.34,3.326,3.326,0,0,0,1.185.834,3.764,3.764,0,0,0,1.476.287,6.067,6.067,0,0,0,.872-.056,3.548,3.548,0,0,0,.717-.178,2.959,2.959,0,0,0,.611-.306,4.3,4.3,0,0,0,.562-.441A.393.393,0,0,1,8.974,10.721Z" transform="translate(134.813 -1.891)" fill="#fff"/>
        <path d="M12.378,6.842a3.426,3.426,0,0,1,.891-1.227,2.095,2.095,0,0,1,1.754-.388,1.224,1.224,0,0,1,.4.166l-.1,1a.216.216,0,0,1-.226.189,1.55,1.55,0,0,1-.309-.045,2.154,2.154,0,0,0-.461-.046,1.822,1.822,0,0,0-.645.106,1.517,1.517,0,0,0-.506.313,2.205,2.205,0,0,0-.4.514,4.408,4.408,0,0,0-.321.7v4.83H11.1V5.31h.77a.421.421,0,0,1,.3.083.507.507,0,0,1,.113.287Z" transform="translate(134.813 -1.891)" fill="#fff"/>
        <path d="M22.492,11.884a2.553,2.553,0,0,1-.6.524,3.648,3.648,0,0,1-.744.366,4.786,4.786,0,0,1-.819.215,4.981,4.981,0,0,1-.837.072,3.88,3.88,0,0,1-1.461-.268,3.213,3.213,0,0,1-1.155-.785,3.609,3.609,0,0,1-.758-1.279,5.18,5.18,0,0,1-.272-1.751A4.469,4.469,0,0,1,16.1,7.483a3.542,3.542,0,0,1,.706-1.2,3.248,3.248,0,0,1,1.125-.8,3.684,3.684,0,0,1,1.494-.291,3.453,3.453,0,0,1,1.272.231,2.87,2.87,0,0,1,1.011.664,3.038,3.038,0,0,1,.668,1.072,4.078,4.078,0,0,1,.242,1.452.878.878,0,0,1-.068.423.281.281,0,0,1-.257.106h-5.11a4.471,4.471,0,0,0,.2,1.26,2.546,2.546,0,0,0,.5.895,1.987,1.987,0,0,0,.754.536,2.6,2.6,0,0,0,.982.177,2.873,2.873,0,0,0,.871-.117,3.974,3.974,0,0,0,.631-.253,4.656,4.656,0,0,0,.441-.252.584.584,0,0,1,.306-.117.3.3,0,0,1,.256.128ZM21.405,8.3a2.656,2.656,0,0,0-.132-.857,1.926,1.926,0,0,0-.385-.671,1.724,1.724,0,0,0-.615-.438,2.333,2.333,0,0,0-2.351.407,2.632,2.632,0,0,0-.7,1.559Z" transform="translate(134.813 -1.891)" fill="#fff"/>
        <path d="M24.062,6.389a4.346,4.346,0,0,1,1.366-.913,4.2,4.2,0,0,1,1.623-.3,2.892,2.892,0,0,1,1.139.211,2.32,2.32,0,0,1,.838.589,2.515,2.515,0,0,1,.514.913,3.825,3.825,0,0,1,.173,1.177v4.891h-.6a.582.582,0,0,1-.3-.064.43.43,0,0,1-.166-.253l-.151-.725a7.411,7.411,0,0,1-.589.495,3.361,3.361,0,0,1-.6.363,3.409,3.409,0,0,1-.675.226,3.692,3.692,0,0,1-.8.079A2.751,2.751,0,0,1,25,12.951a1.938,1.938,0,0,1-.684-.373,1.766,1.766,0,0,1-.46-.631,2.2,2.2,0,0,1-.169-.9,1.683,1.683,0,0,1,.249-.872,2.173,2.173,0,0,1,.807-.743A5.291,5.291,0,0,1,26.2,8.9a11.189,11.189,0,0,1,2.2-.238v-.6a2.047,2.047,0,0,0-.385-1.347,1.391,1.391,0,0,0-1.125-.456,2.42,2.42,0,0,0-.834.124,3.212,3.212,0,0,0-.581.279c-.164.1-.3.2-.423.279a.609.609,0,0,1-.351.125A.387.387,0,0,1,24.469,7a.669.669,0,0,1-.166-.177ZM28.4,9.514a11.2,11.2,0,0,0-1.582.146,4.532,4.532,0,0,0-1.064.306,1.47,1.47,0,0,0-.6.445.962.962,0,0,0-.185.574,1.271,1.271,0,0,0,.1.521.973.973,0,0,0,.268.358,1.061,1.061,0,0,0,.4.2,1.826,1.826,0,0,0,.494.065,2.794,2.794,0,0,0,.65-.072,2.518,2.518,0,0,0,.554-.207,3.164,3.164,0,0,0,.5-.326A4.367,4.367,0,0,0,28.4,11.1Z" transform="translate(134.813 -1.891)" fill="#fff"/>
        <path d="M38.757,12.955H37.414V6.434h-3.94v4.588a.977.977,0,0,0,.234.718.817.817,0,0,0,.6.234,1.066,1.066,0,0,0,.366-.057,1.515,1.515,0,0,0,.267-.124c.076-.046.14-.087.193-.125a.258.258,0,0,1,.14-.057.23.23,0,0,1,.188.129l.393.642a2.51,2.51,0,0,1-.838.509,2.828,2.828,0,0,1-1.011.185,1.844,1.844,0,0,1-1.393-.506,2.017,2.017,0,0,1-.487-1.457V6.434h-.921a.3.3,0,0,1-.2-.072.276.276,0,0,1-.083-.222V5.6l1.253-.166.309-2.355a.33.33,0,0,1,.1-.185.3.3,0,0,1,.207-.072h.68V5.46h5.283Zm.332-10.1a.858.858,0,0,1-.079.367.987.987,0,0,1-.212.3,1.045,1.045,0,0,1-.3.2.941.941,0,0,1-.37.075.911.911,0,0,1-.366-.075,1,1,0,0,1-.3-.2.963.963,0,0,1-.2-.3.9.9,0,0,1-.075-.367.952.952,0,0,1,.075-.373.99.99,0,0,1,.2-.309.958.958,0,0,1,.3-.208.894.894,0,0,1,.366-.075.924.924,0,0,1,.37.075,1,1,0,0,1,.3.208,1.012,1.012,0,0,1,.212.309A.905.905,0,0,1,39.089,2.856Z" transform="translate(134.813 -1.891)" fill="#fff"/>
        <path d="M47.512,5.31,44.4,12.955H43.187L40.07,5.31h1.095a.419.419,0,0,1,.415.279l1.939,4.921c.061.186.113.367.159.543s.088.352.128.528q.06-.264.129-.528c.044-.176.1-.357.166-.543l1.962-4.921a.426.426,0,0,1,.151-.2.4.4,0,0,1,.249-.079Z" transform="translate(134.813 -1.891)" fill="#fff"/>
        <path d="M54.742,11.884a2.553,2.553,0,0,1-.6.524,3.64,3.64,0,0,1-.743.366,4.786,4.786,0,0,1-.819.215,4.993,4.993,0,0,1-.838.072,3.878,3.878,0,0,1-1.46-.268,3.2,3.2,0,0,1-1.155-.785,3.6,3.6,0,0,1-.759-1.279A5.206,5.206,0,0,1,48.1,8.978a4.444,4.444,0,0,1,.245-1.495,3.526,3.526,0,0,1,.706-1.2,3.235,3.235,0,0,1,1.124-.8,3.687,3.687,0,0,1,1.494-.291,3.453,3.453,0,0,1,1.272.231,2.883,2.883,0,0,1,1.012.664,3.052,3.052,0,0,1,.668,1.072,4.079,4.079,0,0,1,.241,1.452.878.878,0,0,1-.068.423.28.28,0,0,1-.256.106h-5.11a4.471,4.471,0,0,0,.2,1.26,2.515,2.515,0,0,0,.5.895,1.98,1.98,0,0,0,.754.536,2.6,2.6,0,0,0,.981.177,2.88,2.88,0,0,0,.872-.117,4,4,0,0,0,.63-.253,4.686,4.686,0,0,0,.442-.252.584.584,0,0,1,.3-.117.3.3,0,0,1,.257.128ZM53.656,8.3a2.656,2.656,0,0,0-.133-.857,1.924,1.924,0,0,0-.384-.671,1.728,1.728,0,0,0-.616-.438,2.333,2.333,0,0,0-2.351.407,2.638,2.638,0,0,0-.7,1.559Z" transform="translate(134.813 -1.891)" fill="#fff"/>
      </g>
      <g style="isolation: isolate">
        <path d="M2.347,24.608a3.983,3.983,0,0,1,1.117-.958,2.866,2.866,0,0,1,1.45-.362,2.769,2.769,0,0,1,1.2.253,2.448,2.448,0,0,1,.914.747,3.586,3.586,0,0,1,.581,1.227,6.28,6.28,0,0,1,.2,1.682,5.276,5.276,0,0,1-.227,1.574,3.783,3.783,0,0,1-.652,1.26,3.023,3.023,0,0,1-2.427,1.144,2.8,2.8,0,0,1-1.2-.237,2.839,2.839,0,0,1-.887-.662v3.382H1.064V23.424h.808a.332.332,0,0,1,.355.279Zm.068,4.62a2.176,2.176,0,0,0,.808.7,2.311,2.311,0,0,0,.981.2,1.933,1.933,0,0,0,1.645-.763A3.562,3.562,0,0,0,6.423,27.2a5.426,5.426,0,0,0-.132-1.283,2.518,2.518,0,0,0-.381-.879,1.492,1.492,0,0,0-.612-.5,2.039,2.039,0,0,0-.822-.158,2.165,2.165,0,0,0-1.151.3,3.314,3.314,0,0,0-.91.852Z" transform="translate(134.813 -1.891)" fill="#fff"/>
        <path d="M12.748,23.3a3.9,3.9,0,0,1,1.509.279,3.233,3.233,0,0,1,1.147.793,3.471,3.471,0,0,1,.728,1.241,5.368,5.368,0,0,1,0,3.257A3.462,3.462,0,0,1,15.4,30.11a3.173,3.173,0,0,1-1.147.789,3.939,3.939,0,0,1-1.509.276,3.987,3.987,0,0,1-1.521-.276,3.163,3.163,0,0,1-1.151-.789,3.478,3.478,0,0,1-.729-1.237,5.368,5.368,0,0,1,0-3.257,3.487,3.487,0,0,1,.729-1.241,3.223,3.223,0,0,1,1.151-.793A3.949,3.949,0,0,1,12.748,23.3Zm0,6.823a1.963,1.963,0,0,0,1.69-.759A3.507,3.507,0,0,0,15,27.25a3.539,3.539,0,0,0-.559-2.128,1.958,1.958,0,0,0-1.69-.763,2.366,2.366,0,0,0-1,.2,1.854,1.854,0,0,0-.71.566,2.507,2.507,0,0,0-.423.909,4.893,4.893,0,0,0-.139,1.219,3.493,3.493,0,0,0,.562,2.117A1.989,1.989,0,0,0,12.748,30.126Z" transform="translate(134.813 -1.891)" fill="#fff"/>
        <path d="M20.3,31.19a1.849,1.849,0,0,1-1.393-.505,2.022,2.022,0,0,1-.486-1.457v-4.68H17.5a.3.3,0,0,1-.2-.071.278.278,0,0,1-.083-.223v-.536l1.253-.158L18.77,21.2a.327.327,0,0,1,.1-.184.3.3,0,0,1,.208-.073h.679v2.634H21.97v.974H19.759v4.589a.976.976,0,0,0,.234.717.817.817,0,0,0,.6.234,1.066,1.066,0,0,0,.366-.057,1.515,1.515,0,0,0,.267-.124c.076-.046.14-.087.193-.125a.255.255,0,0,1,.14-.056.231.231,0,0,1,.188.128l.393.642a2.5,2.5,0,0,1-.838.509A2.828,2.828,0,0,1,20.3,31.19Z" transform="translate(134.813 -1.891)" fill="#fff"/>
        <path d="M29.525,30a2.533,2.533,0,0,1-.6.524,3.7,3.7,0,0,1-.743.367,4.88,4.88,0,0,1-.819.215,5.088,5.088,0,0,1-.838.071,3.878,3.878,0,0,1-1.46-.268,3.2,3.2,0,0,1-1.155-.785,3.588,3.588,0,0,1-.759-1.279,5.206,5.206,0,0,1-.271-1.751,4.443,4.443,0,0,1,.245-1.494,3.507,3.507,0,0,1,.706-1.2,3.24,3.24,0,0,1,1.124-.8,3.672,3.672,0,0,1,1.5-.291,3.457,3.457,0,0,1,1.272.23,2.892,2.892,0,0,1,1.011.664,3.042,3.042,0,0,1,.668,1.073,4.075,4.075,0,0,1,.241,1.452.884.884,0,0,1-.067.423.285.285,0,0,1-.257.105h-5.11a4.484,4.484,0,0,0,.2,1.261,2.519,2.519,0,0,0,.5.894,1.976,1.976,0,0,0,.754.536,2.58,2.58,0,0,0,.982.177A2.878,2.878,0,0,0,27.514,30a4.053,4.053,0,0,0,.631-.253,4.786,4.786,0,0,0,.441-.252.584.584,0,0,1,.306-.117.3.3,0,0,1,.256.128Zm-1.086-3.586a2.65,2.65,0,0,0-.132-.856,1.937,1.937,0,0,0-.385-.672,1.733,1.733,0,0,0-.615-.438,2.1,2.1,0,0,0-.823-.154,2.064,2.064,0,0,0-1.528.562,2.636,2.636,0,0,0-.7,1.558Z" transform="translate(134.813 -1.891)" fill="#fff"/>
        <path d="M32.56,24.533a4.651,4.651,0,0,1,.528-.506,3.515,3.515,0,0,1,.593-.388,2.91,2.91,0,0,1,.664-.249A3.147,3.147,0,0,1,35.1,23.3a2.752,2.752,0,0,1,1.106.208,2.132,2.132,0,0,1,.8.589,2.6,2.6,0,0,1,.487.917,4.009,4.009,0,0,1,.166,1.184v4.868H36.311V26.2a2.06,2.06,0,0,0-.4-1.347,1.472,1.472,0,0,0-1.2-.479,2.266,2.266,0,0,0-1.113.286,3.7,3.7,0,0,0-.955.777v5.631H31.292V23.424H32.1a.331.331,0,0,1,.355.279Z" transform="translate(134.813 -1.891)" fill="#fff"/>
        <path d="M46.7,31.069H45.36V24.548H41.42v4.589a.98.98,0,0,0,.234.717.82.82,0,0,0,.6.234,1.068,1.068,0,0,0,.367-.057,1.515,1.515,0,0,0,.267-.124c.076-.046.14-.087.193-.125a.255.255,0,0,1,.14-.056.233.233,0,0,1,.188.128l.393.642a2.51,2.51,0,0,1-.838.509,2.828,2.828,0,0,1-1.011.185,1.847,1.847,0,0,1-1.393-.505,2.018,2.018,0,0,1-.487-1.457v-4.68h-.921a.3.3,0,0,1-.2-.071.278.278,0,0,1-.083-.223v-.536l1.253-.166.309-2.355a.327.327,0,0,1,.1-.184.3.3,0,0,1,.207-.073h.679v2.634H46.7Zm.332-10.1a.866.866,0,0,1-.079.366,1,1,0,0,1-.212.3,1.018,1.018,0,0,1-.306.2.915.915,0,0,1-.369.075.894.894,0,0,1-.366-.075.981.981,0,0,1-.5-.5.879.879,0,0,1-.076-.366A.929.929,0,0,1,45.2,20.6a.983.983,0,0,1,.2-.31.947.947,0,0,1,.3-.208.894.894,0,0,1,.366-.075.915.915,0,0,1,.369.075.993.993,0,0,1,.306.208,1.022,1.022,0,0,1,.212.31A.915.915,0,0,1,47.036,20.971Z" transform="translate(134.813 -1.891)" fill="#fff"/>
        <path d="M48.712,24.5a4.363,4.363,0,0,1,1.366-.913,4.223,4.223,0,0,1,1.623-.3,2.892,2.892,0,0,1,1.139.211,2.332,2.332,0,0,1,.838.589,2.507,2.507,0,0,1,.513.913,3.8,3.8,0,0,1,.174,1.178v4.89h-.6a.582.582,0,0,1-.3-.064.43.43,0,0,1-.166-.253l-.152-.725a7.231,7.231,0,0,1-.588.495,3.4,3.4,0,0,1-.6.363,3.346,3.346,0,0,1-.675.226,3.7,3.7,0,0,1-.8.079,2.758,2.758,0,0,1-.838-.125,1.942,1.942,0,0,1-.683-.373,1.771,1.771,0,0,1-.46-.63,2.206,2.206,0,0,1-.17-.9,1.683,1.683,0,0,1,.249-.872,2.193,2.193,0,0,1,.808-.743,5.26,5.26,0,0,1,1.457-.532,11.106,11.106,0,0,1,2.2-.239v-.6a2.05,2.05,0,0,0-.385-1.348,1.391,1.391,0,0,0-1.125-.456,2.42,2.42,0,0,0-.834.124,3.212,3.212,0,0,0-.581.279q-.246.156-.423.28a.609.609,0,0,1-.351.125.388.388,0,0,1-.234-.073.665.665,0,0,1-.166-.176Zm4.34,3.125a11.2,11.2,0,0,0-1.582.146,4.58,4.58,0,0,0-1.064.306,1.47,1.47,0,0,0-.6.445.965.965,0,0,0-.185.575,1.266,1.266,0,0,0,.1.52.969.969,0,0,0,.268.359,1.075,1.075,0,0,0,.4.2,1.821,1.821,0,0,0,.494.064,2.741,2.741,0,0,0,.65-.072,2.487,2.487,0,0,0,.554-.207,3.1,3.1,0,0,0,.5-.325,4.291,4.291,0,0,0,.465-.43Z" transform="translate(134.813 -1.891)" fill="#fff"/>
        <path d="M57.8,19.952V31.069H56.455V19.952Z" transform="translate(134.813 -1.891)" fill="#fff"/>
      </g>
    </g>
    <path d="M119.774,80.548V72.584h92.367v7.964" transform="translate(134.813 -1.891)" fill="none" stroke="#fff" stroke-miterlimit="10" stroke-width="1.713"/>
    <path d="M24.185,80.548V72.584h50.3v7.964" transform="translate(134.813 -1.891)" fill="none" stroke="#fff" stroke-miterlimit="10" stroke-width="1.264"/>
  </g>
</svg>
