<svg xmlns="http://www.w3.org/2000/svg" width="72" height="72" viewBox="0 0 72 72">
  <g>
    <path d="M36,16A20,20,0,1,1,16,36,20,20,0,0,1,36,16Z" fill="#3461c6"/>
    <g style="isolation: isolate">
      <g style="isolation: isolate">
        <path d="M31.972,29.34a7.238,7.238,0,0,1,.822-.661,6.134,6.134,0,0,1,.984-.551,5.984,5.984,0,0,1,1.152-.378,6.135,6.135,0,0,1,1.338-.138,5.445,5.445,0,0,1,1.758.275,4.226,4.226,0,0,1,1.4.781,3.6,3.6,0,0,1,.924,1.223,3.794,3.794,0,0,1,.336,1.621,4.142,4.142,0,0,1-.27,1.572,4.406,4.406,0,0,1-.684,1.158,5.381,5.381,0,0,1-.9.864l-.918.69a5.721,5.721,0,0,0-.738.648,1.254,1.254,0,0,0-.354.72L36.6,39H35.14L35,37.008a1.479,1.479,0,0,1,.2-.942,3.419,3.419,0,0,1,.66-.757,10.838,10.838,0,0,1,.9-.7,6.908,6.908,0,0,0,.918-.763,3.968,3.968,0,0,0,.714-.953,2.657,2.657,0,0,0,.288-1.278,2.121,2.121,0,0,0-.2-.937,2.162,2.162,0,0,0-.552-.713,2.459,2.459,0,0,0-.822-.451,3.253,3.253,0,0,0-1.014-.155,3.864,3.864,0,0,0-1.254.18,4.7,4.7,0,0,0-.882.4,5.135,5.135,0,0,0-.582.4.647.647,0,0,1-.366.179.521.521,0,0,1-.468-.275Zm2.34,14.339a1.531,1.531,0,0,1,.426-1.067,1.495,1.495,0,0,1,1.65-.324,1.522,1.522,0,0,1,.48.324,1.539,1.539,0,0,1,.324.48,1.515,1.515,0,0,1,0,1.182,1.56,1.56,0,0,1-.324.474,1.458,1.458,0,0,1-.48.318,1.586,1.586,0,0,1-1.176,0,1.393,1.393,0,0,1-.474-.318,1.5,1.5,0,0,1-.426-1.069Z" fill="#fff"/>
      </g>
    </g>
    <rect width="72" height="72" fill="none"/>
  </g>
</svg>
