<svg xmlns="http://www.w3.org/2000/svg" width="121" height="121" viewBox="0 0 121 121">
  <g>
    <path d="M39.626,66.923A10.149,10.149,0,1,0,43.68,81.707l9.621,4.8a10.183,10.183,0,1,0,18.358-3.433l13.519-14.1A10.154,10.154,0,1,0,85,52.813l-13.737-13.7a10.081,10.081,0,0,0,2.149-6.219,10.184,10.184,0,0,0-20.368,0,10.052,10.052,0,0,0,.26,2.246L44.27,38.421a10.171,10.171,0,1,0-4.98,13.934l4.686,7.866Zm-4.41,16.76a7.618,7.618,0,1,1,7.639-7.618A7.636,7.636,0,0,1,35.216,83.683Zm9.6-4.252A10.069,10.069,0,0,0,41.768,68.3l3.661-5.64L56.468,81.185a10.2,10.2,0,0,0-2.284,2.924Zm18.41-36.379a10.144,10.144,0,0,0,6.236-2.143L83.2,54.609a10.094,10.094,0,0,0-1.8,3.6l-8-1.1v-.1a10.187,10.187,0,0,0-18.649-5.642l-1.519-.757,5.574-8.585a10.125,10.125,0,0,0,4.409,1.016ZM64.5,78.692v-11.6a10.189,10.189,0,0,0,8.558-7.456l8,1.1c0,.033,0,.066,0,.1a10.085,10.085,0,0,0,2.285,6.4L69.97,81.176A10.159,10.159,0,0,0,64.5,78.692ZM63.226,49.4a7.618,7.618,0,1,1-7.639,7.618A7.636,7.636,0,0,1,63.226,49.4Zm-9.6,4.252a10.056,10.056,0,0,0-.587,3.366,10.177,10.177,0,0,0,8.912,10.07v11.6a10.118,10.118,0,0,0-3.384,1.047l-11.6-19.461,4.877-7.512Zm9.6,42.728a7.618,7.618,0,1,1,7.639-7.618,7.636,7.636,0,0,1-7.639,7.618Zm28-43.172a7.619,7.619,0,1,1-7.639,7.619A7.636,7.636,0,0,1,91.231,53.209ZM63.223,25.275a7.618,7.618,0,1,1-7.639,7.618,7.636,7.636,0,0,1,7.639-7.618ZM54.169,37.524a10.226,10.226,0,0,0,2.5,3.136l-5.724,8.817-6.136-3.06a9.9,9.9,0,0,0,.327-5.612ZM27.577,43.051a7.639,7.639,0,1,1,7.638,7.618,7.636,7.636,0,0,1-7.638-7.618Zm13.9,8a10.251,10.251,0,0,0,2.206-2.357l5.878,2.931-4.037,6.218Z" fill="#fff"/>
    <g>
      <circle cx="60.5" cy="60.5" r="60.5" fill="none"/>
      <circle cx="60.5" cy="60.5" r="59" fill="none" stroke="#fff" stroke-width="3"/>
    </g>
  </g>
</svg>
