<svg xmlns="http://www.w3.org/2000/svg" width="193" height="193" viewBox="0 0 193 193">
  <g>
    <g>
      <path d="M142.236,100.733a10.3,10.3,0,0,0-3.359-16.827l4.233-4.217a10.31,10.31,0,0,0,.038-14.579l-.021-.021-.11-.11a10.247,10.247,0,0,0-5.315-2.823,10.4,10.4,0,0,0,.182-1.92,10.24,10.24,0,0,0-3.019-7.3l-.135-.135a10.315,10.315,0,0,0-12.494-1.612,10.256,10.256,0,0,0-2.379-3.708l-.089-.089a10.321,10.321,0,0,0-14.579,0L77.642,74.944l3.422-14.131A11.272,11.272,0,1,0,59.175,55.42c-.019.077-.038.154-.055.232l-.468,2.056A121.454,121.454,0,0,1,47.625,87.069a39.153,39.153,0,0,0,34.657,57.339h.027a38.878,38.878,0,0,0,27.685-11.5L117.881,125Zm-36.728,27.7a32.588,32.588,0,0,1-23.2,9.638h-.026A32.812,32.812,0,0,1,53.233,90.016a127.75,127.75,0,0,0,11.594-30.9L65.3,57.06a4.937,4.937,0,0,1,5.913-3.713,4.814,4.814,0,0,1,.587.173,4.934,4.934,0,0,1,3.108,5.8L68.832,84.41a3.175,3.175,0,0,0,5.32,2.985l35.517-35.52a3.977,3.977,0,0,1,5.617,0l.089.089a3.974,3.974,0,0,1,0,5.62L93.552,79.408a3.167,3.167,0,0,0,4.479,4.479l26.6-26.6a3.974,3.974,0,0,1,5.62,0l.135.135a3.973,3.973,0,0,1,0,5.619l-.007.007L103.713,89.609a3.167,3.167,0,0,0,4.47,4.489c5.285-5.265,19.684-19.608,24.742-24.638a3.982,3.982,0,0,1,5.613.007l.109.11a3.974,3.974,0,0,1,0,5.62l-.007.007c-7.7,7.674-19.9,19.825-27.541,27.438a3.167,3.167,0,0,0,4.471,4.488l14.525-14.47,2.065-2.044a3.974,3.974,0,0,1,5.6,5.635L113.4,120.519Z" fill="#fff"/>
      <path d="M138.414,122.716a3.168,3.168,0,1,0-5.824-2.493A21.3,21.3,0,0,1,119.808,132a3.168,3.168,0,0,0,1.851,6.06c.05-.016.1-.032.149-.05A27.631,27.631,0,0,0,138.414,122.716Z" fill="#fff"/>
      <path d="M146.785,124.468a3.167,3.167,0,0,0-4.159,1.663h0a29.669,29.669,0,0,1-17.178,16.17,3.168,3.168,0,1,0,2.018,6.006c.04-.013.08-.028.12-.043a36,36,0,0,0,20.862-19.638A3.167,3.167,0,0,0,146.785,124.468Z" fill="#fff"/>
    </g>
    <g>
      <circle cx="96.5" cy="96.5" r="96.5" fill="none"/>
      <circle cx="96.5" cy="96.5" r="93.5" fill="none" stroke="#fff" stroke-width="6"/>
    </g>
  </g>
</svg>
