<svg xmlns="http://www.w3.org/2000/svg" width="129" height="129" viewBox="0 0 129 129">
  <g>
    <g>
      <path d="M61.989,77.885a1.31,1.31,0,1,0-.708,1.712,1.292,1.292,0,0,0,.226-.121A1.325,1.325,0,0,0,61.989,77.885Z" fill="#fff"/>
      <path d="M94.089,32.626a5.565,5.565,0,0,0-7.855,0l-8.756,8.743h0c-4.239,4.09-8.539,7.885-14.508,9.379a6.757,6.757,0,0,0-3.134,1.774L31.594,80.732A10.134,10.134,0,0,0,45.931,95.058l11.6-11.571a1.31,1.31,0,0,0-1.85-1.856l-7.365,7.34-10.63-10.62,24-23.969A4.133,4.133,0,0,1,63.6,53.3c6.147-1.539,10.551-5.149,14.767-9.151l4.2,4.191c-4.008,4.214-7.623,8.615-9.162,14.748A4.134,4.134,0,0,1,72.322,65l-8.256,8.256a1.31,1.31,0,1,0,1.782,1.921c.022-.021.043-.042.064-.064l8.255-8.255a6.741,6.741,0,0,0,1.776-3.132c1.494-5.957,5.3-10.255,9.4-14.494h0c.138-.143,8.745-8.746,8.745-8.746a5.547,5.547,0,0,0,.006-7.845l-.006-.006ZM44.079,93.2A7.513,7.513,0,0,1,33.435,82.6l.011-.011L35.832,80.2l10.631,10.62ZM92.236,38.623,84.394,46.46l-4.149-4.147,7.841-7.835a2.932,2.932,0,0,1,4.156,4.138l-.005.005Z" fill="#fff"/>
      <path d="M56.51,75.761a1.3,1.3,0,0,0,.926-.383L69.611,63.216a1.31,1.31,0,0,0,0-1.853h0l-4.289-4.284a1.31,1.31,0,0,0-1.852,0L51.3,69.24a1.31,1.31,0,0,0,0,1.853h0l4.289,4.284a1.3,1.3,0,0,0,.926.383Zm7.886-15.9,2.434,2.427L56.509,72.6l-2.435-2.432Z" fill="#fff"/>
      <path d="M45.186,75.343a4.263,4.263,0,0,0,0,6.029l0,0,.106.106h0A4.267,4.267,0,1,0,51.4,75.522c-.024-.025-.049-.05-.074-.074l-.106-.106A4.275,4.275,0,0,0,45.186,75.343Zm4.289,4.284a1.651,1.651,0,0,1-2.331,0l-.106-.106a1.641,1.641,0,0,1,0-2.322l0,0a1.651,1.651,0,0,1,2.331,0l.106.106a1.641,1.641,0,0,1,0,2.322Z" fill="#fff"/>
    </g>
    <g>
      <circle cx="64.5" cy="64.5" r="64.5" fill="none"/>
      <circle cx="64.5" cy="64.5" r="63" fill="none" stroke="#fff" stroke-width="3"/>
    </g>
  </g>
</svg>
