<svg xmlns="http://www.w3.org/2000/svg" width="168.488" height="168.488" viewBox="0 0 168.488 168.488">
  <g>
    <path d="M84.244,21.061a3.512,3.512,0,0,1-3.51-3.51V3.51a3.51,3.51,0,1,1,7.02,0V17.551A3.512,3.512,0,0,1,84.244,21.061Z" fill="#fff"/>
    <path d="M131.407,40.592a3.507,3.507,0,0,1-2.485-5.988l9.926-9.923a3.51,3.51,0,0,1,5.057,4.869l-.094.094-9.927,9.927A3.5,3.5,0,0,1,131.407,40.592Z" fill="#fff"/>
    <path d="M164.978,87.754H150.937a3.51,3.51,0,0,1,0-7.02h14.041a3.51,3.51,0,0,1,0,7.02Z" fill="#fff"/>
    <path d="M141.333,144.844a3.527,3.527,0,0,1-2.485-1.025l-9.927-9.927a3.51,3.51,0,0,1,4.963-4.963l9.927,9.927a3.507,3.507,0,0,1-2.478,5.988Z" fill="#fff"/>
    <path d="M84.244,168.488a3.512,3.512,0,0,1-3.51-3.51V150.937a3.51,3.51,0,0,1,7.02,0v14.041A3.512,3.512,0,0,1,84.244,168.488Z" fill="#fff"/>
    <path d="M27.155,144.844a3.507,3.507,0,0,1-2.485-5.988l9.927-9.927a3.51,3.51,0,0,1,5.057,4.869c-.031.032-.062.063-.094.094l-9.927,9.927A3.5,3.5,0,0,1,27.155,144.844Z" fill="#fff"/>
    <path d="M17.551,87.754H3.51a3.51,3.51,0,1,1,0-7.02H17.551a3.51,3.51,0,0,1,0,7.02Z" fill="#fff"/>
    <path d="M37.081,40.592A3.527,3.527,0,0,1,34.6,39.567L24.681,29.64a3.51,3.51,0,0,1,4.959-4.959l9.927,9.927a3.507,3.507,0,0,1-2.486,5.984Z" fill="#fff"/>
    <path d="M74.225,140.406A3.581,3.581,0,0,1,73,140.188a3.509,3.509,0,0,1-2.254-3.749l5.989-45.175H52.652a3.51,3.51,0,0,1-2.811-5.616L91.966,29.485a3.513,3.513,0,0,1,6.275,2.682L91.9,70.2h23.94a3.5,3.5,0,0,1,3.089,1.846,3.544,3.544,0,0,1-.154,3.6L77.16,138.833a3.526,3.526,0,0,1-2.934,1.573ZM59.672,84.244H80.733a3.522,3.522,0,0,1,3.482,3.973l-4.5,33.964,29.6-44.958H87.753a3.5,3.5,0,0,1-3.461-4.086L88.946,45.21Z" fill="#fff"/>
  </g>
</svg>
