<svg xmlns="http://www.w3.org/2000/svg" width="227.715" height="59.357" viewBox="0 0 227.715 59.357">
  <g>
    <path d="M32.961,4.488a4.422,4.422,0,0,1-8.843.133c0-.044,0-.088,0-.133a4.422,4.422,0,0,1,8.843-.132Q32.963,4.422,32.961,4.488ZM28.54,12.527a4.623,4.623,0,1,0,4.623,4.623,4.548,4.548,0,0,0-4.472-4.623Zm0,12.461a4.824,4.824,0,1,0,4.824,4.824A4.892,4.892,0,0,0,28.54,24.988Zm0,12.662a4.623,4.623,0,1,0,4.623,4.623A4.676,4.676,0,0,0,28.54,37.65Zm0,12.863a4.422,4.422,0,1,0,4.422,4.422A4.422,4.422,0,0,0,28.54,50.513ZM40.8,11.924a5.322,5.322,0,0,0-5.226,5.226,5.226,5.226,0,0,0,10.451,0A5.322,5.322,0,0,0,40.8,11.924Zm0,12.461a5.427,5.427,0,1,0,5.427,5.427h0a5.4,5.4,0,0,0-5.373-5.427Zm0,12.662a5.226,5.226,0,1,0,5.226,5.226A5.322,5.322,0,0,0,40.8,37.047ZM53.461,23.782a6.03,6.03,0,1,0,0,12.059h0a5.921,5.921,0,0,0,6.029-5.813q0-.108,0-.216A6.18,6.18,0,0,0,53.461,23.782ZM16.079,13.13a4.02,4.02,0,1,0,4.02,4.02h0A4.032,4.032,0,0,0,16.079,13.13Zm0,12.461a4.221,4.221,0,0,0-.13,8.441c.043,0,.087,0,.13,0a4.221,4.221,0,0,0,.13-8.441Zm0,12.662a4.02,4.02,0,1,0,4.02,4.02A4.02,4.02,0,0,0,16.079,38.253ZM3.618,26.194a3.6,3.6,0,1,0,.036,0Z" fill="#fff"/>
    <g>
      <g>
        <path d="M104.91,21.974a.866.866,0,0,0-.8.8V54.332a.864.864,0,0,0,.8.8h3.819a.864.864,0,0,0,.8-.8V22.774a.866.866,0,0,0-.8-.8Z" fill="#fff"/>
        <path d="M106.924,8.709a3.6,3.6,0,1,0,.036,0Z" fill="#fff"/>
        <path d="M185.906,21.974a.866.866,0,0,0-.8.8V54.332a.864.864,0,0,0,.8.8h3.819a.864.864,0,0,0,.8-.8V22.774a.866.866,0,0,0-.8-.8Z" fill="#fff"/>
        <path d="M187.719,8.709a3.618,3.618,0,1,0,3.618,3.618h0a3.6,3.6,0,0,0-3.582-3.618Z" fill="#fff"/>
        <path d="M225.905,52.121a.737.737,0,0,0,.2-.6h0v-.2a.2.2,0,0,0-.2-.2.708.708,0,0,0-.4-.2H224.1v2.814h.4v-1h.6l.8,1h.4l-1-1.206C225.7,52.523,225.905,52.322,225.905,52.121Zm-1.407.2v-1h.8a.742.742,0,0,1,.6.2c.2,0,.2.2.2.4h0c0,.2,0,.4-.2.4s-.4.2-.6.2h-.8Z" fill="#fff"/>
        <path d="M225.1,49.709a2.613,2.613,0,1,0,2.613,2.613h0A2.661,2.661,0,0,0,225.1,49.709Zm0,5.025a2.412,2.412,0,1,1,2.412-2.412A2.444,2.444,0,0,1,225.1,54.734Z" fill="#fff"/>
        <path d="M136.266,27.2a.864.864,0,0,0,.8-.8V22.577a.866.866,0,0,0-.8-.8h-8.039V9.71a.866.866,0,0,0-.8-.8h-3.822a.866.866,0,0,0-.8.8V21.773h-4.028a.866.866,0,0,0-.8.8v3.819a.864.864,0,0,0,.8.8h4.02v18.3c0,5.628,3.819,9.245,9.245,9.245h4.02a.864.864,0,0,0,.8-.8V50.11a.866.866,0,0,0-.8-.8h-3.413a4.274,4.274,0,0,1-4.433-4.11,4.184,4.184,0,0,1,.011-.513V27h8.039Z" fill="#fff"/>
        <path d="M216.258,27.2a.864.864,0,0,0,.8-.8V22.577a.866.866,0,0,0-.8-.8h-8.039V9.71a.866.866,0,0,0-.8-.8H203.6a.866.866,0,0,0-.8.8V21.773h-4.031a.866.866,0,0,0-.8.8v3.819a.864.864,0,0,0,.8.8h4.02v18.3c0,5.628,3.819,9.245,9.245,9.245h4.02a.864.864,0,0,0,.8-.8V50.11a.866.866,0,0,0-.8-.8h-3.618A4.274,4.274,0,0,1,208,45.2a4.184,4.184,0,0,1,.011-.513V27h8.24Z" fill="#fff"/>
        <path d="M81,27.2V54.131a.864.864,0,0,0,.8.8h3.819a.864.864,0,0,0,.8-.8V27.2h8.843a.864.864,0,0,0,.8-.8V22.576a.866.866,0,0,0-.8-.8H86.423V14.738a4.562,4.562,0,0,1,4.29-4.818l.132-.006h4.422a.864.864,0,0,0,.8-.8V5.288a.866.866,0,0,0-.8-.8H91.046A10.078,10.078,0,0,0,81,14.537v7.235H76.973a.866.866,0,0,0-.8.8v3.819a.864.864,0,0,0,.8.8h4.02Z" fill="#fff"/>
      </g>
      <path d="M173.047,25.792a15.966,15.966,0,0,0-11.657-5.025,16.184,16.184,0,0,0-11.054,4.42V5.087a.866.866,0,0,0-.8-.8h-3.827a.866.866,0,0,0-.8.8V38.253c0,12.26,8.24,17.686,16.28,17.686s16.28-5.427,16.28-17.686A16.992,16.992,0,0,0,173.047,25.792ZM161.39,50.915c-8.039,0-11.054-6.431-11.054-12.461,0-7.436,4.422-12.26,11.054-12.26s11.054,5.025,11.054,12.26C172.243,44.487,169.429,50.915,161.39,50.915Z" fill="#fff"/>
    </g>
  </g>
</svg>
