<svg xmlns="http://www.w3.org/2000/svg" width="70.558" height="70.558" viewBox="0 0 70.558 70.558">
  <path d="M35.279,0A35.278,35.278,0,0,0,0,35.277v0A35.279,35.279,0,0,0,35.277,70.558h0A35.278,35.278,0,0,0,70.558,35.281v0A35.278,35.278,0,0,0,35.281,0ZM50.163,32.711a1.225,1.225,0,0,1,.539,1.644l-2.137,4.252,2.771-.917a1.222,1.222,0,0,1,1.544.777h0a1.222,1.222,0,0,1-.772,1.545h0L46.529,41.86a1.225,1.225,0,0,1-1.479-1.715l2.137-4.252-2.372.784h0a1.224,1.224,0,0,1-.768-2.324l5.177-1.714A1.226,1.226,0,0,1,50.163,32.711Zm5.015,15.778a23.015,23.015,0,0,1-12.136,9.326A23.247,23.247,0,0,1,14.417,26.474l0,0A23.245,23.245,0,0,1,45.007,14.427l.005,0a1.224,1.224,0,0,1-.44,2.343,16.157,16.157,0,0,0-14.23,9.756,1.223,1.223,0,0,1-1.608.64h0a1.225,1.225,0,0,1-.64-1.609,18.639,18.639,0,0,1,11.243-10.3A20.8,20.8,0,0,0,15.993,42.281h0A20.8,20.8,0,0,0,42.275,55.493h0A20.648,20.648,0,0,0,50,50.906a18.589,18.589,0,0,1-21.137-9.045l-.008-.015a1.224,1.224,0,0,1,2.155-1.16l0,0c.109.2.22.392.336.585a16.16,16.16,0,0,0,22.182,5.5h0a1.221,1.221,0,0,1,1.652,1.715ZM33.6,35.495a1.223,1.223,0,0,1-1.546-.776h0a1.224,1.224,0,0,1,.776-1.546l6.043-2a1.223,1.223,0,0,1,1.476,1.711l-2.714,5.4,3.7-1.223a.274.274,0,0,1,.048-.017,1.223,1.223,0,0,1,1.529.809h0a1.224,1.224,0,0,1-.81,1.529l-6.5,2.152a1.224,1.224,0,0,1-1.477-1.712l2.714-5.4Zm-13.714-2.5a1.224,1.224,0,1,1-.768-2.324l8.2-2.712a1.224,1.224,0,0,1,1.478,1.711l-4.159,8.271,6.022-1.993.048-.015a1.224,1.224,0,1,1,.721,2.339L22.6,41.192a1.223,1.223,0,0,1-1.477-1.712l4.157-8.269Z" fill="#fff"/>
</svg>
